<svg xmlns="http://www.w3.org/2000/svg" xmlns:xlink="http://www.w3.org/1999/xlink" version="1.1" id="Layer_1" x="0px" y="0px" style="background-color:white;" xml:space="preserve" viewBox="508.4 384.63 902.74 311.7">
<style type="text/css">
	.st0{fill:#FFFFFF;}
</style>
<g>
	<path class="st0" d="M708.9,518.3c0.3,0.4,0.6,0.8,0.9,1.3C709.5,519.2,709.2,518.7,708.9,518.3z"/>
	<path class="st0" d="M707.5,516.4c0.5,0.6,0.9,1.3,1.3,1.9C708.4,517.7,708,517.1,707.5,516.4z"/>
	<path class="st0" d="M709.7,519.6c2.8,4,5.4,7.7,9.5,10.2l0,0C715.2,527.3,712.5,523.5,709.7,519.6z"/>
	<path class="st0" d="M707.2,534.1c-0.3,0.1-0.6,0.1-0.9,0.2C706.7,534.2,706.9,534.2,707.2,534.1z"/>
	<path class="st0" d="M711.1,533c-0.4,0.1-0.8,0.3-1.3,0.4C710.2,533.3,710.7,533.1,711.1,533z"/>
	<path class="st0" d="M716.4,531.2c-0.1,0-0.1,0.1-0.2,0.1C716.2,531.3,716.3,531.2,716.4,531.2z"/>
	<path d="M1408,430.6c0.4-3.3,1.5-6.6,2.7-9.7c0.5-1.4,0.7-2.2-0.1-3.3c-1-1.2-2.1-2.2-3.8-1.5c-1.9,0.9-3.7,0.3-5.6,0   c-7.8-1.3-15.6-2.6-23.5-3.5c-7.9-0.9-15.8-1.1-23.7-1.9c-9.7-1-19.4-1.3-29.2-1.1c-6.2,0.1-12.4-0.2-18.7-0.3   c-1.3,0-2.7,0.1-4.1,0.2c-1.5,0.1-2.9,0.2-4.4,0.3c-1.4,0.1-2.8,0.3-4.8,0.5c1.2-3.8,2.1-7.1,3.3-10.2c1-2.8,0.1-4.4-2.9-4.4   c-4.5-0.1-9.1-0.3-13.6-0.1c-8.9,0.3-17.9,0.7-26.8,1.3c-4.1,0.2-8.3,0.9-12.4,1.3c-3.2,0.3-4,1.8-4.6,4.5c-0.6,3-1,6.9-1.1,8.4   c-0.3,6-0.4,12-0.7,17.9c-0.3,5.3-0.7,10.6-1.2,15.9c-0.8,7.9-1.8,15.7-2.6,23.6c-0.8,8.2-1.4,16.5-2.1,24.7   c-0.2,2.3-0.4,4.6-0.6,7.5c-0.6-0.9-3.2-5.1-3.4-5.6c-1.4-3.2-2.8-6.4-4.2-9.7c-2.9-6.6-5.8-13.3-8.6-19.9c-0.5-1.2-1-2.5-1.4-3.8   c-2.5-6.5-4.8-13.2-7.4-19.6c-3.7-9-7.6-17.9-11.4-26.8c-0.9-2.1-2.9-3.5-5-3.2c-6.5,1.1-12.9,2.1-19.4,3.5   c-7.1,1.5-14.2,2.8-21.5,2.9c-1.6,0-2.9-0.3-4.1-1.3c-1.5-1.2-2.9-2.6-4.6-3.5c-7-3.8-14.6-5.9-22.6-6.5c-2.3-0.2-4.8,0-7.1,0.5   c-4.1,0.8-8.2,2-12.8,3.1c0.6-1.1,1-2,1.5-2.8c2.2-2.8,4.5-5.7,6.9-8.4c1.4-1.5,2.3-3.2,1.6-5.2c-0.8-2.3-2.2-4-5-4.3   c-4.3-0.4-8.5-1.6-12.7-2c-10.2-1-20.5-1.8-30.8-2.4c-6.4-0.4-12.9-0.4-19.3-0.7c-7.1-0.4-14.2-0.7-21.4,0.3   c-5.5,0.7-11,1.2-16.6,1.6c-10.9,0.8-21.9,1.6-32.7,3.4c-8.2,1.4-16.6,1.9-24.8,4.1c-5.8,1.6-11.6,2.9-17.4,4.5   c-1.8,0.5-3.7,1.2-5.4,2c-1.5,0.7-2.1,2.2-1.5,3.7c1.9,4.3,3.8,8.7,5.9,12.9c2,3.9,4.6,7.5,6.3,11.6c4.7,11.4,9.9,22.6,16.3,33.2   c1,1.7,2.2,2.5,4.2,2c1.1-0.3,2.2-0.4,3.3-0.8c8.5-2.8,16.9-5.7,25.4-8.5c3.8-1.2,7.6-2.4,11.4-3.3c5.2-1.2,10.4-2.2,15.6-3.1   c4.5-0.8,9.1-1.1,14.2-0.6c-0.9,1.3-1.5,2.3-2.2,3.2c-1.4,1.9-2.9,3.7-4.2,5.7c-1,1.6-1.5,3.6-2.6,5.1c-3.6,5.1-7.3,10-11,15   c-0.4,0.5-0.7,1.1-1.1,1.7c-3.5,4.8-6.8,9.8-10.5,14.5c-3.2,4.1-6.9,7.8-10,11.9c-3.1,4.1-5.9,8.5-8.7,12.8   c-1.9,2.9-3.6,5.8-5.7,9.2c-2.5-5-4.8-9.4-6.8-13.9c-2.7-6-5.2-12-7.9-18c-1.2-2.8-2.8-5.4-4.1-8.2c-3.8-7.6-7.5-15.3-11.3-22.8   c-3.4-6.7-7-13.2-10.2-19.9c-4.4-9.2-8.5-18.5-12.7-27.8c-0.8-1.8-1.9-2.1-3.7-2.1c-4.3-0.1-8.5,0.9-12.8,0.4   c-3.6-0.4-7.2,0-10.8,0.2c-2.8,0.2-5.6,0.6-8.4,0.8c-3.5,0.2-3.8,0.4-4.6,4.1c-1.2,5.4-2.3,10.9-3.7,16.2   c-1.1,4.2-2.7,8.3-4.1,12.4c-0.5-2.7-0.5-5.3-0.5-7.9c-0.1-10.3-0.2-20.6,1-30.8c0.2-2,0-4,0-6.6c-2.1,0.4-3.7,0.8-5.3,1.1   c-3.6,0.6-7.2,1-10.7,1.7c-5.5,1.1-11,2.3-16.6,3.5c-3.5,0.7-7.1,1.2-10.6,2.1c-3.8,1-4.3,1.7-4.6,5.6c-0.8,12.7-1.2,25.3-1,38   c0.2,9.6,0.1,19.3-0.1,28.9c-0.3,10.8-0.8,21.5-1.3,32.2c0,0.7-0.2,1.5-0.3,2.2c-1.2-0.8-1.9-1.8-2.4-2.9c-4.2-10-8.4-20-12.4-30.1   c-4.2-10.5-8.1-21.1-12.1-31.7c-1.2-3.3-2.4-6.6-3.6-9.9c-1-2.9-1.5-6.1-3-8.6c-2.7-4.6-3.8-9.6-5.1-14.6c-0.6-2.2-1.5-3.1-3.7-3.2   c-0.9,0-1.8,0-2.7,0.2c-5.9,0.8-11.8,2-17.8,2.5c-9.8,0.8-19.1,3.3-28.6,5.5c-0.7,0.2-1.4,0.6-2.3,1.1c0.3,1,0.4,1.8,0.8,2.6   c1,1.9,2.2,3.7,3,5.7c2,4.7,4,9.4,5.8,14.1c4.2,11,8.2,22.1,12.4,33.1c2.3,6,5.2,11.8,7.8,17.7c0.7,1.6,1.2,3.4,1.8,5   c-4.1-6-7.9-12-11.5-18.1c-5.1-8.9-12-16.8-16.5-26.1c-0.1-0.3-0.4-0.6-0.6-0.8c-2.6-2.5-3.6-5.9-5.1-9.1c-0.6-1.2-1.2-2.5-1.5-3.8   c-0.7-3-3.9-3.1-5.5-5.1c-0.2-0.2-0.9-0.2-1.3-0.1c-2.6,0.3-5.2,0.6-7.7,1.1c-7,1.3-14,2.7-20.9,4.2c-3.1,0.7-6.1,1.7-9.1,2.7   c-1.4,0.5-2.4,0.9-4-0.2c-1.8-1.4-4.2,0-4.4,2.3c-0.3,3.7-0.6,7.4-0.9,11.2c-0.3,2.9-0.6,5.8-0.9,8.8c-0.5,4.2-1.1,8.3-1.4,12.5   c-0.7,9.3-1.3,18.5-2,27.8c-0.2,2.7-0.7,5.3-1,7.9c-1-0.7-1.3-1.3-1.5-2c-2.3-6.7-4.5-13.5-6.9-20.2c-2.2-6.2-4.8-12.2-7-18.4   c-3.5-9.7-6.8-19.4-10.2-29.1c-0.8-2.2-1.4-4.3-0.5-6.9c0.9-2.5-0.7-4-3.5-3.9c-10.2,0.5-19.9,3.2-29.5,6.2   c-11.8,3.8-23.2,8.4-34.1,14.2c-1,0.5-1.9,1.1-3.5,2.1c2.3,3.6,4.4,6.7,6.4,9.9c1.9,2.9,3.9,5.8,5.5,8.9c1.4,2.6,2.5,5.3,3.7,8   c3.5,8.3,7.1,16.6,10.4,25.1c3.1,8,5.7,16.3,9,24.2c3,7.2,5.3,14.4,6.3,22.1c1.1,7.7,2.3,15.5,3.2,23.2c0.7,6.3,1.3,12.6,1.7,18.9   c0.4,7.2-1.7,13.6-6.1,19.3c-1,1.3-2.4,2.5-3.8,3.2c-6.4,3.3-16.4,1.5-21.8-3.8c-5.4-5.2-9.1-11.4-11-18.8   c-0.6-2.4-1.2-2.8-3.4-2.1c-4.6,1.5-9.3,2.8-13.9,4.5c-6.4,2.3-12.7,4.9-19,7.3c-5,1.9-9.9,3.7-14.9,5.7c-1.1,0.4-2,1.1-2.7,1.4   c0.6,2.3,1.1,4,1.4,5.7c0.4,1.9,0.5,3.8,0.9,5.7c2.2,9.5,6.7,18,11.1,26.6c3.3,6.5,7.8,12.2,12.4,17.8c5,6.3,11.6,10.5,18.6,13.9   c3.7,1.8,7.8,3,11.9,4.1c7.1,2,14.2,4,21.7,3.1c5.3-0.6,10.5-1.5,15.8-2.4c2.9-0.5,5.8-1.1,8.5-2.1c3.8-1.5,7.4-3.4,11-5.4   c4.4-2.5,8.6-5.4,13.1-7.8c6.4-3.3,11.5-7.9,15.8-13.7c1.9-2.5,4.2-4.8,6.3-7.1c0.4-0.4,0.8-0.8,1.3-1c3.1-1.1,6.2-2,9.2-3.1   c2.4-0.8,4.7-1.6,7-2.6c1.9-0.8,3.7-1.8,5.6-2.5c4.9-1.7,9.8-3.3,14.8-4.8c2.2-0.7,4.6-1.2,6.9-1.4c2.4-0.1,3.2-0.5,3.4-3   c0.2-2.5,0.4-5,0.5-7.5c0.3-7.1,0.5-14.2,0.6-21.4c0.1-2.8-0.2-5.7-0.1-8.5c0.2-4.1,0.6-8.1,1.2-12.2c0.2-1.1,0.9-2.5,1.8-3   c3-1.6,6.1-3,9.3-4.2c3.5-1.3,7.1-2.3,10.7-3.4c2.6-0.8,3.8-0.2,4.9,2.2c0.6,1.3,1.2,2.7,2,3.9c5.9,9.1,11.9,18.2,17.9,27.3   c0.8,1.2,1.3,2.6,1.8,4c0.7,2.1,2.8,3.9,5,3.8c0.9-0.1,2.2-0.6,2.5-1.3c1.1-2.8,3.5-3.3,6-3.9c1.9-0.4,3.7-0.9,5.6-1.3   c5.5-1.2,11-2.5,16.6-3.4c5.7-0.9,11.3-2.1,16.3-4.9c0.7-3.4,0.6-3.3-0.4-4.8c-2.1-3-4-6-6-9c-0.3-0.4-0.2-1-0.4-1.9   c9.4-1.8,18.5-3.5,28.3-5.4c-0.6,1.9-1,3.1-1.4,4.3c-1.1,3.6-2.4,7.1-3.3,10.7c-0.9,3.5,1.1,5.1,4.6,4.1c2.3-0.7,4.6-1.3,6.9-1.6   c8.6-1.1,17.3-2.2,25.9-3.1c4.5-0.5,9-0.7,13.5-0.8c3.7-0.1,4.3-0.4,5-4c0.2-0.9,0.3-1.8,0.5-2.7c1.8-10.6,3.7-21.2,5.4-31.8   c0.3-1.8,1.2-2.4,2.9-2.6c3.6-0.5,7.1-1.3,10.7-1.9c2.1-0.4,4.3-0.6,6.4-0.9c2.6-0.3,4.2,0.7,5.4,3.1c5.2,10.4,10.6,20.8,16,31.1   c0.9,1.7,1.2,3.3,0.4,5.2c-3.2,7.1-3.8,14.9-5.9,22.3c-0.4,1.2,0,2.1,0.8,3.1c1.3,1.5,2.7,1.1,4.3,0.6c4.7-1.4,9.3-2.9,14-3.9   c9.3-1.9,18.6-3.6,28-5.3c6.6-1.2,13.1-2.4,19.7-3.4c4-0.6,8.1-1.2,12.1-1.5c3.6-0.3,7.2-0.4,10.8-0.6c11.1-0.8,22-2.4,33.2-1.9   c6,0.3,12,0.2,18,0.5c5.6,0.3,11.3,0.9,16.9,1.5c6.2,0.7,12.4,1.3,18.5,2.2c5.1,0.8,10.1,2.1,15.6,3.2c0.2-0.2,0.4-0.7,0.8-1.1   c2.6-2.2,2.6-2.6,1.3-5.7c-1.1-2.6-2.5-5.1-3.2-7.8c-1.4-5-2.5-10.1-3.7-15.1c-0.1-0.3,0.2-0.6,0.4-1.3c9.5,1.2,17.9-3.2,27.2-5.7   c0.5,2.7,0.9,5.1,1.3,7.5c0.4,2.5,0.6,4.9,1,7.4c0.5,3.2,0.9,3.5,4.2,3.5c3.3,0,6.6-0.3,9.8-0.4c1.6-0.1,3.2-0.1,4.7,0   c5.1,0.2,10.2,0.6,15.3,0.7c3.5,0.1,7-0.1,10.5,0.1c1,0,2,0.7,2.9,1.2c1.7,1,3.1,0.8,4-0.9c0.5-0.8,0.7-1.9,0.7-2.9   c-0.1-2.8-0.4-5.6-0.5-8.4c-0.5-13.6-0.5-27.2,0-40.8c0.1-2.5,0.2-5.1,0.3-8.4c0.8,1.7,1.3,2.6,1.8,3.6   c4.2,10.4,8.3,20.8,12.5,31.2c2.5,6.3,5.2,12.5,7.7,18.8c0.7,1.8,2.8,3,4.9,2.8c1.7-0.1,3.4-0.2,5-0.1c2.5,0.2,5,0.4,7.4,0.9   c5.9,1,11.8,2.1,17.6,3.4c3.4,0.8,6.7,2.1,10.1,3c7.6,2.1,15.1,4.5,22.3,7.8c1.4-0.6,2.8-1.5,2.7-3.1c-0.2-2.9,0.9-5.9-0.9-8.6   c-0.3-0.4-0.2-1-0.4-2c1.3-0.1,2.4-0.3,3.5-0.2c3.3,0.3,6.5,0.7,9.8,1.2c6.3,1,12.6,1.8,18.7,3.3c8.7,2.1,17.4,4.4,25.8,7.4   c8.8,3.2,18,5.3,26.2,10.2c0.7,0.4,1.4,0.7,2.2,1c3.4,1.7,6.9,3.3,10.3,5.1c2.1,1.1,4,2.5,6.1,3.6c5.6,2.8,10.9,5.9,15.3,10.5   c1,1,2.1,1.2,3.4,0.8c1.4-0.4,2-1.5,1.9-2.9c-0.1-1.9-0.4-3.8-0.4-5.7c0.1-6.8,0.1-13.5,0.5-20.3c0.4-6.7,1-13.3,1.7-20   c0.3-3.4,1.1-6.7,1.5-10.1c0.4-3.2-0.3-4.3-3.2-5.5c-1.2-0.5-2.4-0.8-3.5-1.3c-6.8-3-13.2-7-20.5-8.8c-0.4-0.1-0.8-0.4-1.2-0.5   c-2.5-0.8-4.9-1.7-7.4-2.3c-6.7-1.7-13.4-3.2-20.1-4.8c-4.2-1-8.3-2.3-12.5-3.2c-3.1-0.7-6.2-1-9.8-1.5c-0.4-8-0.8-16-1.2-24.2   c2.4-1.1,4.9-0.6,7.4-0.4c4.2,0.4,8.3,1,12.4,1.5c3.9,0.5,7.8,0.9,11.7,1.4c1.2,0.2,2.3,0.7,3.5,1.2c1.2,0.5,3.8,0.2,4.7-0.8   c1.1-1.2,1.9-2.5,0.9-4.3c-0.4-0.7-0.7-1.7-0.6-2.6c0.1-3.3,0.4-6.5,0.6-9.8c0.4-5.4,0.7-10.8,1.2-16.2c0.1-1.2,0.6-2.4,1.1-3.5   c0.9-2.2,0.4-3.8-1.9-4.5c-1.4-0.4-2.9-0.8-4.3-0.9c-9.9-1.1-19.8-2.2-29.7-3.3c-1.1-0.1-2.2-0.3-3.8-0.6c0.1-8.6,0.3-17,0.4-25.9   c4.3,0.3,8.1,0.5,11.9,1c9.9,1.1,19.8,2.2,29.6,3.5c3.8,0.5,7.5,1.7,11.3,2c3.8,0.3,7.3,1.4,10.9,2.5c1.3,0.4,2.5,1.1,3.6,1.9   c2.8,2,3.8,1.8,5.4-1.3c0.7-1.5,0.8-2.8,0.7-4.5c-0.3-3.2,0.2-6.5,0.4-9.8C1406.9,442.3,1407.2,436.4,1408,430.6z M863.1,465.6   c2.3-8.5,5.2-16.9,7.6-25.3c1.6-5.4,2.7-11,4.1-16.4c0.9-3.5,0.9-3.3,4.5-3.8c5.6-0.9,11.2-0.8,16.9-0.4c2.2,0.1,4.5-0.3,6.8-0.5   c1.9-0.2,3.2,0.3,4.1,2.2c2.3,5,4.7,10,7,15c3,6.4,5.7,12.8,8.9,19.1c7,14.1,14.2,28.1,21.3,42.1c1.7,3.4,3,7.1,4.6,10.6   c3.2,7.1,6.4,14.3,9.9,21.2c1.3,2.5,1.8,4.4-0.1,6.7c-1.4,1.7-2.2,3.9-3.6,6.3c-1.1-1.7-2-2.8-2.6-4.1c-3.7-7.5-7.4-15-11.1-22.5   c-3.3-6.6-6.7-13.1-9.9-19.7c-2.8-6-5.2-12.3-7.9-18.4c-2.8-6.4-5.8-12.8-8.7-19.2c-2.9-6.2-6.1-12.4-8.9-18.7   c-1-2.2-3.2-3.8-3.2-6.5c0-0.4-1.2-1-1.9-1.2c-0.7-0.2-1.6-0.2-2.4,0c-5.4,1.5-11,1-16.5,1.2c-2.5,0.1-3.7,1.2-4.4,3.4   c-1.6,4.9-3.1,9.7-4.7,14.5c-1.7,5.3-3.5,10.5-5.1,15.8c-1.4,4.6-2.7,9.3-4.1,14c-0.4,1.5-1.2,2.9-1.8,4.3   c-0.2-0.1-0.5-0.1-0.7-0.2C860.7,478.5,861.3,472,863.1,465.6z M914.2,518.8c-0.3,0.1-0.5,0.4-0.8,0.4c-8.1-0.6-15.9,1.4-23.9,1.9   c-4.5,0.3-9,0.4-13.6,0.5c-0.4-3.3,0.4-6.2,0.9-9c1.3-7,2.7-14,4-21c0.7-3.8,1-7.6,1.6-11.4c0.3-1.7,0.7-3.3,1.2-4.9   c1.4-4.5,2.8-9.1,4.2-13.6c0.4-1.1,1-2.2,1.7-3.8C893.4,465.2,912.3,511.8,914.2,518.8z M651.7,655.6c-2.7,2.9-5.1,6.1-7.8,9   c-2.2,2.4-4.5,4.9-7.2,6.6c-8,4.9-16.1,9.6-24.4,14c-2.9,1.6-6.3,2.5-9.6,3.1c-6.2,1.2-12.5,2.1-18.8,2.7c-6.1,0.6-11.9-1.3-17.6-3   c-3-0.9-6-1.9-8.9-3.2c-10.3-4.2-18.1-11.4-24.2-20.5c-2.4-3.7-4.9-7.4-6.9-11.3c-3.9-7.8-7.7-15.6-10-24.1   c-1.6-5.7-0.6-7.2,4.9-9.4c4.4-1.8,8.7-3.9,13-5.8c0.8-0.4,1.6-0.8,2.5-1c5.7-1.9,11.4-3.8,17.1-5.6c1.4-0.4,2.8-0.6,4.3-0.9   c1.7,3.4,2.9,6.7,4.9,9.6c2.6,3.8,5.5,7.5,8.9,10.6c4.1,3.9,14.3,6.4,19.8,4.9c5.4-1.4,10.4-3.8,13.5-9c4.6-7.8,6.1-16.3,5.2-25.1   c-0.9-8.6-2.2-17.1-3.3-25.6c-0.4-3.3-0.9-6.5-1.2-9.8c-0.8-8.8-3.4-17-7-25.1c-2.2-4.9-3.7-10.2-5.7-15.3   c-2.8-7.1-4.9-14.6-8.5-21.4c-2.7-5.2-4.6-10.8-7.2-16.1c-2-4.2-4.5-8.1-6.7-12.2c-1.5-2.8-3.1-5.5-4.7-8.5c2.4-2,5.3-2.9,7.9-4   c6-2.6,12.2-4.9,18.2-7.4c8.1-3.3,16.3-6.1,25.1-7c0.9-0.1,1.8-0.1,2.7-0.2c1.4-0.1,2.4,0.3,3,1.7c1.4,3.2,2.9,6.4,4.1,9.7   c4.4,12.3,8.6,24.5,12.9,36.8c3.8,10.9,7.6,21.8,11.1,32.8c5.5,17.1,9.6,34.4,13.1,52c1.7,8.6,3.4,17.2,3.1,25.9   c-0.2,9.2-1.1,18.3-4.2,27.1c-0.6,1.6-0.9,3.3-1.1,5C660.5,643.3,656.9,649.8,651.7,655.6z M801.5,602.7c-3.6,1.9-7.1,2.4-10.6,3.1   c-5.7,1.2-11.5,2.5-17.1,3.8c-3.7,0.9-7.4,2.1-11.1,3.2c-1.5,0.5-2.3,0-3-1.3c-1.8-3-3.7-5.9-5.7-8.8c-3.5-5.1-7.3-10.1-10.6-15.3   c-2.4-3.8-5.1-7.5-6.2-12c-0.6-2.7-1.8-3.2-4.5-2.5c-6.7,1.5-13.2,3.8-19.5,6.6c-2.4,1-4.7,2.1-7.5,1.4c-2.5-0.6-3.3,0.5-3.7,3.5   c-1.1,8-1.2,16-1.2,24c0.1,9-0.4,18.1-0.7,27.6c-6.5,2.1-13.1,4.2-19.6,6.5c-3.3,1.2-6.5,2.7-9.7,4.2c-2.4,1.1-4.8,1.9-8,1.9   c0.5-1.3,0.9-2.3,1.3-3.3c0.2-0.5,0.7-1,0.7-1.5c0.4-4.3,3.6-5.2,7-6.2c6.6-2,13.1-4.2,19.7-6.4c0.5-0.2,1-0.5,1.5-0.8   c0.6-3.8,1.4-7.6,1.6-11.3c0.2-3.6-0.3-7.2-0.3-10.9c0.1-9.6,0.2-19.2,0.4-28.8c0-2.6,0.3-2.8,2.7-3.6c8.5-2.8,16.9-5.7,25.5-8.4   c5-1.6,10.2-2.9,15-4.2c0.6,0.4,0.9,0.5,0.9,0.6c1.4,4.4,4.4,7.8,7.2,11.3c4.6,5.9,8.2,12.5,11.9,18.9c1.1,1.9,2.5,3.5,3.6,5.3   c2.4,3.9,6.1,3.7,9.6,2.7c4.5-1.3,9-1.9,13.7-2.5c1.5-0.2,3.1-0.7,4.3-1.5c1.7-1.3,1.6-2.6-0.2-3.8c-2.7-1.9-4.4-4.3-6-7.2   c-2.2-3.8-4.9-7.3-7.3-11c-5.1-8-10.1-16-15.2-24c-4.6-7.4-9.3-14.7-13.7-22.2c-3.8-6.5-7.2-13.3-10.9-20c-1.6-3-3.5-5.8-5.2-8.7   c-1.2-2.1-2.3-4.2-3.5-6.2c-3.3-5.4-6.7-10.8-9.8-16.3c-3-5.2-5.7-10.5-8.6-15.8c-0.9-1.7-1.8-3.7-3.9-3.9c-2.6-0.2-5.4-0.1-8,0.3   c-1.9,0.2-3.7,1.1-5.5,1.6c-3.1,0.9-6.2,2.1-9.4,2.7c-2.8,0.5-5.1,1.8-7.3,3.3c-0.7,0.5-1.3,1.6-1.5,2.5c-0.6,2.8-0.9,5.6-1.4,8.4   c-1,5.7-2.3,11.3-3.1,17c-0.9,6.5-2.7,12.8-3.1,19.4c-0.5,9.2-1.7,18.5-2.6,27.7c-0.1,0.5-0.3,1-1.1,1.5c-0.5-1.5-1.2-2.9-1.3-4.4   c-0.3-3.3-0.5-6.6-0.3-9.8c0.4-6.5,1.1-13.1,1.7-19.6c0.2-2.4,0.3-4.7,0.5-7.1c1-10,2-20,3-30c0.4-4.1,0.9-8.1,1.1-12.2   c0.2-2.4,1.1-4,3.4-4.9c4-1.7,8-3,12.3-3.6c3.8-0.6,7.5-1.7,11.3-2.4c5.4-1,10.9-1.7,16.4-2.6c1.4,3.3,2.7,6.2,3.9,9.1   c0.4,0.9,0.8,1.9,1.4,2.7c3.8,5.9,7.6,11.8,11.3,17.7c6.6,10.7,13.1,21.4,19.4,32.3c4.1,7.1,7.5,14.7,11.5,21.9   c4.6,8.3,9.5,16.5,14.3,24.6c4.1,6.9,8.3,13.8,12.6,20.5c2.9,4.5,6.1,8.7,8.9,13.2C796.1,593.2,798.7,597.9,801.5,602.7z    M719.3,529.8c-0.6,0.4-1.6,0.9-2.9,1.4c-0.1,0-0.1,0.1-0.2,0.1c-1.5,0.6-3.2,1.2-5.1,1.7c-0.4,0.1-0.8,0.3-1.3,0.4   c-0.9,0.3-1.7,0.5-2.6,0.7c-0.3,0.1-0.6,0.1-0.9,0.2c-2.6,0.6-4.8,1-5.9,0.9c0.1-7.8,2-15.3,3-23.7c1.5,1.6,2.8,3.2,4.1,4.9   c0.5,0.6,0.9,1.3,1.3,1.9c0.3,0.4,0.6,0.8,0.9,1.3C712.5,523.5,715.2,527.3,719.3,529.8L719.3,529.8L719.3,529.8z M703.6,540.3   c4.4-1.3,8.8-2.7,13.3-3.9c2.3-0.6,4.7-1,7-1c2.6,0,4.1-1.7,2.5-4.2c-1.7-2.8-3.8-5.3-5.9-7.8c-1.9-2.3-4.1-4.2-5.8-6.6   c-2.9-4-5.6-8.2-8.4-12.3c-1.5-2.3-2.6-2.7-5.5-1.9c-2.7,0.7-3.1,1.3-3.4,4.3c-0.9,10-1.8,20-2.8,30c0,0.4-0.3,0.8-0.4,1.2   c-0.3,0-0.6,0-0.9,0c0.2-2.5,0.3-5.1,0.5-7.6c0.3-3.7,0.6-7.4,0.9-11.2c0.2-4.2,0.4-8.3,0.6-12.5c0-0.8,0-1.7,0.3-2.4   c1.5-3.6,2-7.3,1.9-11.7c1,0.6,1.6,0.9,2,1.3c2.2,2.7,4.5,5.4,6.6,8.2c3.7,4.9,7.2,9.8,11,14.7c2.6,3.4,5.6,6.5,8.2,9.9   c2.7,3.5,5.2,7.1,8.1,11.1c-1.7,0.6-2.9,1.4-4.3,1.5c-5.7,0.5-10.9,2.8-16.4,4.3c-6.2,1.8-12.3,3.7-18.5,5.6   c-0.2,0.1-0.4-0.1-1.1-0.2c0.1-2.3,0.3-4.5,0.5-7.6c0.7,1.1,0.9,1.7,1.3,2.1c1.3,1.4,3.5,1.4,4.6-0.4   C700.6,541.4,702,540.8,703.6,540.3z M815.4,582c-5,1.1-10,1.7-15,2.7c-2.4,0.5-3.9-0.5-5.1-2.4c-2.3-3.6-4.9-7.1-7.2-10.7   c-3.9-6.2-7.8-12.5-11.6-18.8c-4.8-7.9-9.5-15.9-14.1-24c-0.8-1.4-0.8-3.3-1.3-4.9c-1.7-5.4-3.8-10.7-5.1-16.2   c-2.9-11.6-9-22-12.9-33.2c-3-8.7-6.3-17.2-9.6-25.8c-2.1-5.5-4.5-10.9-6.7-16.3c-0.3-0.7-0.5-1.5-0.8-2.6c1.4-0.5,2.7-1.2,4.1-1.5   c6.4-1.4,12.8-2.9,19.2-4.1c4.7-0.9,9.4-1.4,14.1-2.1c1.1-0.2,2.3-0.2,3.4,0c0.8,0.1,1.5,0.7,2.1,1.3c0.5,0.4,0.7,1.2,0.9,1.8   c2.1,5.6,4.1,11.2,6.1,16.9c2.5,6.9,5.1,13.8,7.7,20.7c1.9,5.1,3.7,10.2,5.7,15.3c4,10.3,8,20.7,12.1,31c2.6,6.5,5.5,12.9,8.3,19.3   c0.4,0.9,0.7,2,1.4,2.7c0.6,0.6,1.8,1.3,2.6,1.1c0.7-0.2,1.6-1.2,1.8-2.1c0.5-1.6,0.8-3.3,0.9-5c0.5-6.2,1.1-12.4,1.4-18.6   c0.5-10.5,0.9-21,1-31.6c0.1-10.2-0.2-20.4-0.3-30.5c0-3.3,0.2-6.6,0.4-9.8c0.3-5,0.8-9.9,1.1-14.9c0.2-3.3,0.4-3.8,3.5-4.5   c10.6-2.3,21.2-4.6,32.1-5.9c0.4,0,0.9,0,1.7,0.1c0.1,1.1,0.4,2.2,0.3,3.3c-0.6,16-1.2,31.9-1.7,47.9c-0.1,1.6,0,3.2,0,4.8   c0,6.9,0.4,13.8,0,20.7c-0.5,8.2-1.6,16.4-2.4,24.7c-0.4,3.8-0.6,7.7-0.8,11.5c-0.4,9.7-0.7,19.5-0.9,29.2   c-0.1,5.7,0.3,11.3,0.5,17c0.1,3.7,0.1,4-3.3,5.4c-2.9,1.1-6,2-9.1,2.7C831.7,578.4,823.6,580.3,815.4,582z M919,561   c-1.2-2.4-2.3-4.9-3.5-7.4c-0.2-0.5-0.4-1.1-0.4-1.6c-0.2-2.7-0.5-3-3.1-3c-4.7,0-9.2,0.7-13.8,1.8c-2.3,0.5-4.7,0.9-7,1.1   c-1.6,0.2-3,0.1-4.5-0.9c-2-1.3-3.8-0.6-4.4,1.8c-0.7,2.5-1.1,5.1-1.5,7.7c-1.7,9.9-3.3,19.9-4.9,29.8c-0.3,1.6-1,2.4-2.6,2.6   c-1.8,0.2-3.6,0.5-5.4,0.6c-8.4,0.3-16.7,1.2-24.9,2.8c-4,0.7-8,1.1-12.2,1.6c-0.5-5.7,4.1-9.4,4-14.6c1-0.2,1.8-0.3,2.9-0.5   c-0.1,0.6,0,0.9-0.2,1.1c-1.3,2.4-0.5,4.2,2.1,4.5c0.6,0.1,1.1,0,1.7,0c6.3-0.6,12.6-1.2,18.9-1.7c0.7-0.1,1.4-0.2,2,0   c2.8,0.9,4.7-0.9,6.8-2.2c0.5-0.3,0.7-1.1,0.9-1.7c3-11.4,6.1-22.7,9.1-34.1c0.7-2.5,1.9-4,4.8-4.3c10.1-1.3,20.1-2.8,30.2-4.3   c1.9-0.3,3.8-0.7,5.7-1c5.4,12.1,10.7,23.9,16.2,36.1c-1.2,2.5-2.6,5.5-4.3,8.9c-0.8-1.1-1.4-1.8-1.8-2.5   C926.1,574.6,922.5,567.9,919,561z M1110.2,603.6c-2.7-0.5-5.2-1.1-7.7-1.5c-7.5-1-15-1.9-22.6-2.6c-5.1-0.5-10.1-1-15.2-1.2   c-9.1-0.4-18.3-0.7-27.4-0.8c-4,0-8.1,0.6-12.1,1c-3,0.3-6.1,0.7-9.1,0.9c-5.6,0.4-11.3,0.5-17,0.9c-2.4,0.2-4.7,0.7-7,1.1   c-10.7,1.7-21.5,3.3-32.2,5.1c-4.6,0.8-9.1,2-13.6,3c-5.4,1.3-10.8,2.6-16.2,3.8c-0.3,0.1-0.7,0-1.5-0.1c0.4-1.7,0.9-3.3,1.1-4.9   c0.5-4.5,1.7-8.9,3.5-13.1c3.5-8.5,6.7-17.1,10.6-25.4c2.5-5.3,5.8-10.2,8.9-15.2c3.5-5.6,6.8-11.3,10.8-16.4   c2.6-3.3,3.5-7.2,5.7-10.6c4-6,7.5-12.4,11.5-18.4c2.1-3.2,4.9-5.8,7.3-8.9c4.3-5.4,8.5-10.8,12.7-16.4c4.1-5.5,8.2-11.1,12-16.9   c4-5.9,6.9-12.5,11.6-17.9c2.1-2.4,1.4-3.1-1.3-4.7c-6.2-3.5-12.3-1.2-18.4-0.4c-4.6,0.6-9.1,1.7-13.6,2.8c-5,1.3-10,2.8-15,4.3   c-5.8,1.8-11.6,3.7-17.4,5.6c-1.1,0.3-2.1,0.9-3.1,1.3c-3.8,1.5-5.5,1-7.6-2.5c-1.1-1.8-2.2-3.7-3.2-5.6   c-4.1-8.6-8.1-17.2-12.3-25.7c-1.6-3.3-3.8-6.4-5.5-9.7c-1.7-3.3-3-6.8-4.7-10.5c1.7-0.6,3.1-1.2,4.6-1.6   c7.7-1.9,15.3-3.9,23.1-5.5c5.8-1.1,11.6-1.6,17.5-2.4c2.8-0.4,5.6-0.8,8.4-1.1c7.4-0.7,14.9-1.3,22.3-1.9   c6.9-0.6,13.7-1.3,20.6-1.9c2.5-0.2,5-0.3,7.5-0.3c7.5,0.2,14.9,0.2,22.4,0.7c12.2,0.7,24.4,1.6,36.5,2.7c4.6,0.4,9,1.7,13.9,2.7   c-0.6,1-0.9,1.7-1.4,2.3c-5.6,6.2-9.4,13.5-13.6,20.7c-1.6,2.8-3.5,5.6-5.1,8.4c-4,7.1-8,14.1-11.9,21.2c-2.3,4.2-4.5,8.6-6.8,12.9   c-0.4,0.7-1,1.2-1.4,1.9c-1.7,2.8-3.3,5.6-4.9,8.5c-1.4,2.6-2.7,5.2-4.1,7.8c-1.9,3.6-3.8,7.2-5.7,10.8c-2.1,4.1-4.2,8.3-6.3,12.4   c-1.5,2.8-3,5.6-4.5,8.3c-2.9,5.4-5.8,10.7-8.7,16.1c-0.3,0.5-0.5,1-0.7,1.5c-2.6,7.3-5.7,14.5-7.3,22.2c-0.6,2.7-1.9,5.3-2.8,8   c-1.1,3.4,0.1,4.9,3.7,4.6c6.5-0.5,13.1-1.2,19.6-1.7c6.1-0.4,12.2-0.8,18.3-1c9-0.4,18.1-0.7,27.1-1.1c4.5-0.2,9-0.3,13.6-0.5   c2.5-0.1,3.3,0.4,3.9,3.1c1.9,9.4,4.1,18.8,6.3,28.2C1107.3,594.6,1108.8,598.9,1110.2,603.6z M1050.6,516.1   c1.2,6,1.7,12.1,3.9,17.9c2.4,6.5,5.4,12.7,9.1,18.5c0.4,0.6,0.8,1.3,1.4,2.2c-1.2,0.3-2.2,0.8-3.1,0.8   c-13.8,0.9-27.7,1.7-41.6,2.5c0-0.9-0.1-1.5,0-2c1.5-5,2.7-10.1,4.5-14.9c2.2-5.8,4.8-11.5,7.6-17c4.9-9.8,10.1-19.4,15.2-29.2   c0.2-0.4,0.4-0.7,1-1.7c0.2,3.3,0.5,5.9,0.4,8.5C1048.8,506.6,1049.6,511.3,1050.6,516.1z M1064.4,544.3c-2.6-5-5.2-10.1-6.4-15.6   c-0.4-2-1-3.9-1.4-5.9c-0.9-5.1-2-10.2-2.5-15.4c-0.7-6.7-0.5-13.5,0.4-20.3c1-7.2,4.4-13.2,7.7-19.4c1.9-3.7,4-7.3,6.2-11   c-0.2,0.6-0.4,1.3-0.6,1.9c-3.1,8.8-3.9,17.9-3.9,27.1c0,13.3,3.1,26,7.1,38.6c3.4,10.6,8.8,20,16.5,28.1c0.4,0.4,0.7,0.9,1.5,2   c-5.8,0.3-10.9,0.5-15.9,0.7c-0.6,0-1.4-0.6-1.9-1.1C1068.3,551.3,1066.3,547.9,1064.4,544.3z M1091.8,466.4   c0.8-3.8,2.3-7.5,3.5-11.3c1-3.5,3.4-6.2,5.8-8.6c1.7-1.7,4.1-2.8,6.3-3.8c3.8-1.8,7.5-1.4,11.3,0.4c3.7,1.7,6.6,4.1,9,7.5   c3.7,5.1,6.6,10.5,7.9,16.7c0.7,3.2,0.8,6.5,1.2,9.2c-0.3,4.4-0.6,8.2-1,12c-0.7,6.7-3.2,12.7-8,17.5c-3.7,3.6-7.9,6.4-13.2,7.2   c-2.5,0.4-4.8-0.1-7.1-1.5c-4-2.4-7.1-5.7-9.9-9.2c-1.5-1.9-2.6-4.3-3.1-6.7c-1.4-6.5-2.6-13.1-3.4-19.7   C1090.8,472.9,1091.1,469.5,1091.8,466.4z M1094.2,416.3c0.9-0.4,1.8-1,2.8-1.3c4-1.1,8-2.3,12.1-3.1c4.4-0.9,8.8,0.4,13.1,1.3   c5.7,1.3,11.2,3.3,15.8,7.4c1.6,1.4,3.5,2.4,5.3,3.7c0.9,0.6,1.9,1.3,2.7,2c9.6,9.1,16.5,20,20.8,32.6c1.4,4.2,3.1,8.3,4.5,12.4   c1.9,5.4,1.9,11.1,2.5,16.7c1.7,15.4-1.8,30.1-6,44.7c-2,7-6.6,12.6-11.4,17.9c-1.7,1.9-3.6,3.7-5.3,5.7   c-4.7,5.7-10.7,9.9-17.3,12.8c-5.1,2.2-10.7,3.5-16.2,5c-1.4,0.4-2.9,0.1-4.4,0c-1.8-0.1-3.5-0.4-5.6-0.7c-0.6-2.7-1.4-5.8-2.1-9.1   c1.6,0,2.9,0,4.2,0c2-0.1,4.1,0.1,6-0.5c6.3-2,12.3-4.7,17.3-9c4.5-3.9,9-7.9,13.4-12c0.9-0.8,1.5-1.9,2.2-3   c1.8-2.7,3.5-5.5,5.8-7.9c3.1-3.3,4.2-7.7,5.1-12c1.9-9.5,2.4-19,1.2-28.6c-0.5-4.5-0.6-9-0.8-13.5c-0.3-6.3-2-12.3-4.5-18   c-2-4.5-4.6-8.8-7-13.2c-1.1-2-2.2-3.9-3.5-5.8c-0.9-1.4-1.9-2.8-3.1-4c-4.5-4.5-9.6-8.1-15.3-11c-3.6-1.8-7.3-2.6-11.2-3.3   c-3.3-0.5-6.6-0.3-9.8-1c-2.1-0.4-4.9,0.9-7,2c-4.9,2.7-9,6.4-12.9,10.4c-3.1,3.2-6.3,6.4-9.3,9.4c0.4-2.2,9.5-19,13.2-24   L1094.2,416.3z M1242.4,403c8.1-1.8,16-1.3,23.7-1.9c7.7-0.5,15.5-1.5,23.5,0.3c-0.3,1.7-0.5,3.2-0.8,4.8c-1,6.8-1.9,13.7-3.1,20.5   c-1,6.1-2.5,12.2-3.4,18.4c-0.8,5.2-1.2,10.6-1.7,15.9c-0.3,3.5-0.2,7-0.4,10.5c-0.5,12.2-1,24.4-1.6,36.6   c-0.4,8.9-1.2,17.8-1.6,26.8c-0.4,10.4-1.1,20.8-0.2,31.2c0.4,4.2-0.4,8.6-0.3,12.9c0.1,4.6,0.5,9.3,0.7,13.9   c0,0.8-0.1,1.6-0.1,2.6c-0.8-0.1-1.4-0.1-2-0.3c-5.9-2.3-11.9-4.3-18.2-5.5c-1.8-0.3-3.4-1.3-5.1-1.7c-4.7-1.1-9.5-2-14.3-2.9   c-2.6-0.5-5.1-1-7.7-1.4c-2.1-0.3-4.3-0.4-6.4-0.5c-5-0.2-6.1-1.2-7.8-5.8c-1.6-4.2-3.6-8.3-5.4-12.5c-2-4.8-4.2-9.5-6-14.4   c-3.3-8.7-6.4-17.4-9.5-26.2c-0.7-2.1-1-4.4-1.5-6.6c-0.3-1.8-1.5-2.7-3.2-2.7c-1.5,0.1-2.9,1.6-2.6,3.3c0.6,3.7-0.1,7.2-0.5,10.8   c-0.4,4-0.6,8.1-0.7,12.2c-0.3,10.9-0.5,21.7-0.7,32.6c-0.1,3.7,0,7.4,0.1,11.6c-1.4,1-3.5,1.3-5.7,1.3c-6.6-0.1-13.1-0.5-19.7-0.5   c-3.4,0-6.8,0.3-10.2,0.5c-1.1,0.1-2.1,0.2-3-0.9c-0.7-0.8-2.1-1.1-3.6-1.7c-0.1-0.8-0.2-2-0.4-3.2c-0.4-2.6-0.7-5.2-1.3-7.7   c-0.5-1.7-0.3-2.8,1.2-3.7c2.5-1.6,4.8-3.3,7.6-5.2c0.6,1.9,0.5,3.4-0.1,5.1c-0.9,2.6-0.6,3.4,2,3.7c3.5,0.4,7,0.3,10.5,0.6   c2.1,0.1,4.3,0.4,6.4,0.6c1.8,0.2,3.6,0.4,5.4,0.3c2.2-0.1,2.9-0.9,2.5-3c-1.2-7.4,0-14.8,0.3-22.2c0.2-5,0.3-9.9,0.4-14.9   c0.3-6.6,0.6-13.1,0.9-19.7c0.1-2,0.6-4,0.7-6.1c0.5-7,0.9-14,1.4-21c0-0.5,0.1-1,0.2-2.4c1.1,1.3,1.8,1.9,2.2,2.7   c2.6,4.9,4.9,9.9,7.6,14.8c4.5,8.2,9.3,16.3,13.7,24.5c4.1,7.7,7.9,15.5,11.9,23.2c0.4,0.8,0.8,1.6,1.3,2.4   c3.1,4.5,4.9,9.7,6.8,14.8c0.7,2,1.7,3,3.8,3.3c4,0.5,8.1,1,12.1,1.8c4.2,0.8,8.4,2,12.5,3c2.6,0.7,5.2,1.6,7.8,2.2   c2.4,0.6,3-0.2,2.8-2.6c-0.2-3.4-0.2-6.8,0-10.1c0.2-4.7,0.7-9.5,0.9-14.2c0.3-5.2,0.4-10.4,0.6-15.6c0.1-3.6,0.2-7.2,0.4-10.8   c0.2-2.9,0.8-5.8,1.1-8.7c0.9-8.1,1.9-16.2,2.5-24.3c1-13.3,1.5-26.7,2.6-40c0.7-9,2-18,3.2-26.9c0.2-1.9,1-3.7,1.5-5.5   c0.6-2,0.3-2.6-1.5-3.6c-2.4-1.4-4.7-1.9-7.6-1.6c-4.9,0.5-9.9,0.1-14.9,0.2c-2.9,0-4.1,0.9-4.4,3.9c-0.5,4.4-0.9,8.8-1,13.2   c-0.3,6.4-0.2,12.9-1.4,19.3c-0.7,3.8-0.5,7.7-0.8,11.5c-0.2,2.8-0.3,5.7-0.4,8.5c-0.2,3.8-0.3,7.7-0.7,11.5   c-0.9,9.2-1.9,18.5-2.9,27.7c-0.9,7.9-2,15.7-2.9,23.6c-0.2,1.9-0.6,3.6-2.6,4.9c-0.6-0.7-1.4-1.3-1.8-2.1c-2.6-4.5-5-9.1-7.6-13.6   c-4.9-8.7-10-17.2-14.7-25.9c-2.6-4.8-4.6-9.8-7-14.7c-2.2-4.6-4.5-9.1-6.7-13.7c-1.8-3.6-3.6-7.3-5.4-10.9   c-3.2-6.4-6.4-12.7-9.5-19.1c-1.4-2.8-2.8-5.7-4.3-8.9c-1.3-1-2.9-0.9-4.7,0.1c-1,0.5-2.1,0.9-3.2,1c-4,0.7-8,1.2-12.5,1.9   c-2.2-2.4-4.7-5.1-7.6-8.1c1.3-0.4,2.1-0.8,2.9-0.9c7.6-0.6,14.9-2.4,22.3-4.1c3.2-0.7,6.5-1,9.7-1.3c0.7-0.1,1.7,0.6,2.1,1.2   c1,1.5,1.8,3.2,2.5,4.8c3.4,8.3,6.8,16.5,10.1,24.9c2.1,5.5,3.8,11.2,6,16.6c4.2,10.4,8.6,20.7,13.1,31c2.1,4.9,4.7,9.5,6.9,14.4   c1.2,2.5,2.5,5.1,2.4,8.1c0,1,0.6,2.2,1.3,3.1c1.4,1.9,3.5,1.5,4.5-0.7c0.8-1.6,1.1-3.2,0.5-5c-0.5-1.3-0.6-2.9-0.6-4.3   c0.2-11.7,1.1-23.3,2.2-34.9c0.7-7.3,0.9-14.7,1.4-22c0.5-6.8,1-13.5,1.7-20.3c0.9-8.1,2-16.2,3.2-24.2L1242.4,403z M1400.1,457.4   c-2.3-0.5-4.4-1-6.4-1.4c-12.3-2.6-24.7-4.3-37.2-5.8c-8.2-0.9-16.4-1.9-24.7-1.7c-4.5,0.1-4.8,0.5-4.7,4.8   c0.1,6.9,0.1,13.8,0,20.7c0,2.5-0.3,5-0.4,7.5c-0.1,2.9,1,3.8,3.9,3.4c4.9-0.5,9.7-0.3,14.5,0.5c5.6,1,11.2,1.7,16.8,2.5   c1.1,0.2,2.2,0.3,3.7,0.5c0.3,10.2-2.3,20.1-1.6,30.3c-2.7,0-4.9,0.5-6.9,0c-6.8-1.7-13.7-1.8-20.5-2.4c-2.7-0.2-5.4,0-8.1-0.1   c-2.8-0.1-4.9,0.8-6.1,3.4c2.3,3.9,2.1,8.3,2.3,12.5c0.1,3.3,0,6.6,0,9.9c0,2.4,0.1,4.7,0.3,7.1c0.1,1.7,1,2.6,3,2.6   c11-0.5,21.1,3.6,31.5,6c2.3,0.5,4.7,0.9,7,1.6c4,1.1,8,2.6,12,3.5c5.3,1.2,9.8,4,14.8,5.9c3.3,1.3,6.4,3.2,9.6,4.9   c-1.2,16.5-2.3,33-3.5,50c-36-22-74.9-35.1-117.1-39.7c0-4.8-0.1-9.6-0.1-14.4c0-6.7-0.1-13.4,0-20c0.2-7.8,0.7-15.6,1.1-23.4   c0.1-2.7,0.3-5.4,0.5-8.1c0.4-10.2,0.9-20.3,1.3-30.5c0.4-9.5,0.6-19,1.2-28.5c0.4-5.9,1.3-11.7,2.2-17.5   c1.2-7.6,2.7-15.1,4.1-22.7c0.5-2.7,1-3.3,3.7-3.5c4.2-0.2,8.4-0.3,12.6-0.4c2.7-0.1,5.4-0.1,8.1-0.1c8.7,0.1,17.4-0.1,26.1,0.3   c8.9,0.4,17.8,1.2,26.7,1.9c6.7,0.6,13.3,1.1,19.9,2.1c5,0.7,9.9,2.1,15.1,3.3C1401.3,433.9,1402.2,445.7,1400.1,457.4z"/>
	<path class="st0" d="M1099.9,562.1c-0.6-2.7-1.4-3.2-3.9-3.1c-4.5,0.1-9,0.3-13.6,0.5c-9,0.3-18.1,0.7-27.1,1.1   c-6.1,0.3-12.2,0.6-18.3,1c-6.5,0.5-13.1,1.1-19.6,1.7c-3.6,0.3-4.8-1.2-3.7-4.6c0.9-2.7,2.2-5.2,2.8-8c1.6-7.7,4.7-14.8,7.3-22.2   c0.2-0.5,0.4-1,0.7-1.5c2.9-5.4,5.8-10.7,8.7-16.1c1.5-2.8,3.1-5.5,4.5-8.3c2.1-4.1,4.2-8.3,6.3-12.4c1.9-3.6,3.8-7.2,5.7-10.8   c1.4-2.6,2.7-5.2,4.1-7.8c1.6-2.9,3.2-5.7,4.9-8.5c0.4-0.7,1-1.2,1.4-1.9c2.3-4.3,4.4-8.6,6.8-12.9c3.9-7.1,7.9-14.2,11.9-21.2   c1.6-2.8,3.4-5.6,5.1-8.4c4.1-7.1,8-14.5,13.6-20.7c0.5-0.5,0.8-1.3,1.4-2.3c-4.9-1-9.3-2.3-13.9-2.7c-12.2-1.1-24.3-1.9-36.5-2.7   c-7.4-0.4-14.9-0.5-22.4-0.7c-2.5,0-5,0.1-7.5,0.3c-6.9,0.6-13.7,1.3-20.6,1.9c-7.4,0.7-14.9,1.2-22.3,1.9   c-2.8,0.3-5.6,0.7-8.4,1.1c-5.8,0.8-11.7,1.3-17.5,2.4c-7.8,1.5-15.4,3.6-23.1,5.5c-1.5,0.4-2.9,1-4.6,1.6c1.6,3.7,3,7.2,4.7,10.5   c1.7,3.3,3.9,6.4,5.5,9.7c4.2,8.5,8.2,17.1,12.3,25.7c0.9,1.9,2.1,3.8,3.2,5.6c2.1,3.5,3.8,4,7.6,2.5c1-0.4,2-1,3.1-1.3   c5.8-1.9,11.6-3.8,17.4-5.6c5-1.5,10-3,15-4.3c4.5-1.1,9-2.2,13.6-2.8c6.1-0.8,12.3-3.1,18.4,0.4c2.7,1.6,3.4,2.3,1.3,4.7   c-4.7,5.4-7.7,12-11.6,17.9c-3.8,5.7-7.9,11.3-12,16.9c-4.1,5.5-8.4,11-12.7,16.4c-2.4,3-5.2,5.7-7.3,8.9c-4,6-7.5,12.4-11.5,18.4   c-2.2,3.4-3.1,7.3-5.7,10.6c-4,5.1-7.4,10.8-10.8,16.4c-3.1,5-6.4,9.9-8.9,15.2c-3.9,8.3-7.1,16.9-10.6,25.4   c-1.7,4.2-2.9,8.5-3.5,13.1c-0.2,1.6-0.7,3.2-1.1,4.9c0.8,0.1,1.2,0.2,1.5,0.1c5.4-1.3,10.8-2.6,16.2-3.8c4.5-1.1,9-2.3,13.6-3   c10.7-1.8,21.4-3.4,32.2-5.1c2.3-0.4,4.7-0.9,7-1.1c5.6-0.4,11.3-0.6,17-0.9c3-0.2,6.1-0.6,9.1-0.9c4-0.4,8.1-1.1,12.1-1   c9.2,0.1,18.3,0.4,27.4,0.8c5.1,0.2,10.2,0.7,15.2,1.2c7.5,0.8,15.1,1.7,22.6,2.6c2.5,0.3,5,0.9,7.7,1.5c-1.4-4.8-2.9-9-4-13.4   C1104,580.9,1101.9,571.5,1099.9,562.1z M1095.2,588.7c-0.9,0.9-2.3,1.4-3.4,2.1c-0.1,0-0.2,0-0.3,0c-6.8-0.5-13.5-1.1-20.3-1.5   c-5-0.3-9.9-0.4-14.9-0.4c-4.9,0-9.7,0.2-14.6,0.4c-4.1,0.2-8.1,0.5-12.2,0.8c-5.8,0.4-11.5,0.7-17.3,1.3   c-3.7,0.4-7.4,1.1-11.1,1.6c-8.3,1.2-16.6,2.2-24.8,3.5c-4.8,0.7-9.6,1.8-14.4,2.7c-2.1,0.4-4.3,0.4-6.4,0.9   c-1.9,0.4-3.7,1.1-5.5,1.7c-1.1,0.3-2.1,1-3.2,0.9c-3.8-0.2-5.1-1.6-4.6-5.5c0.5-3.7,1.2-7.3,3.7-10.4c1.4-1.6,2.2-3.7,3.1-5.6   c4.2-9.7,10.1-18.3,15-27.6c1.5-2.9,2.9-5.9,4.4-8.8c0.7-1.4,1.5-2.8,2.4-4.1c3.4-4.9,6.9-9.8,10.3-14.8c1-1.5,2-3,2.7-4.7   c2.8-6.8,7.1-12.6,11.1-18.6c3.4-5.2,6.3-10.7,9.8-15.8c3.5-5.1,7.5-9.9,11.1-15c2.3-3.2,4.2-6.7,6.4-10   c3.8-5.9,7.6-11.8,11.4-17.6c1.7-2.5,3.5-5,5.8-8.3c-2.7-0.5-4.6-1-6.4-1c-14.2-0.1-28.2,1-41.9,5.5c-6.8,2.3-14,3.6-21.1,5.2   c-4.4,1-8.9,1.8-13.3,2.6c-3.2,0.6-4.6,0-5.8-2.8c-3.5-8.3-6.9-16.7-10.4-25.1c-0.3-0.7-0.4-1.5-0.6-2.3c-0.8-2.5-1.2-5,0.3-8.1   c2.9-0.9,6.1-2.2,9.5-2.9c12.4-2.4,24.8-4.8,37.3-6.8c5.2-0.9,10.6-0.9,15.9-1.3c2.5-0.2,5-0.2,7.4-0.4c10.5-0.7,21-0.6,31.5-0.1   c5.4,0.3,10.9,0.2,16.3,0.3c2.3,0.1,4.5,0.3,6.8,0.5c2.6,0.2,5.2,0.5,7.8,0.7c2.9,0.2,3.5,1.2,4.3,3.8c1.1,3.4-0.2,5.8-1.8,8.5   c-2.2,3.7-4.2,7.5-6.3,11.2c-1,1.7-2.1,3.2-3.2,4.8c-1.8,2.5-3.8,4.8-5.3,7.5c-2.2,3.9-3.9,8.1-5.9,12.1c-1.3,2.7-2.6,5.5-4.1,8.2   c-4.8,8.6-9.6,17.2-14.4,25.8c-4.2,7.5-8.6,14.9-12.5,22.5c-3.2,6.2-5.7,12.8-8.5,19.2c-1.7,4.1-3.4,8.1-4.9,12.3   c-3.7,10.5-7.4,21.1-11,31.7c-0.3,0.8-0.2,1.7-0.3,3c2.2,0.1,4.1,0.4,5.9,0.2c8.4-0.7,16.9-1.6,25.3-2.3c6.3-0.5,12.6-0.9,18.9-1.4   c2.7-0.2,5.4-0.5,8.1-0.6c2.4-0.1,4.7,0,7.1,0c4.8,0.1,9.5,0,14.2,0.2c3.2,0.1,6.3,0.6,9.5,0.9c2.3,0.2,3.8,1.4,4.1,3.8   c0.4,3,0.7,6,1.2,9c0.3,1.9,0.7,3.8,1.4,5.5C1095.1,586.7,1096.2,587.7,1095.2,588.7z"/>
	<path class="st0" d="M1242.7,410.2c-1.2,8.1-2.3,16.1-3.2,24.2c-0.8,6.7-1.3,13.5-1.7,20.3c-0.5,7.3-0.7,14.7-1.4,22   c-1.1,11.6-2,23.2-2.2,34.9c0,1.4,0.1,3,0.6,4.3c0.6,1.8,0.3,3.4-0.5,5c-1,2.1-3.1,2.5-4.5,0.7c-0.7-0.9-1.3-2.1-1.3-3.1   c0.1-3-1.2-5.5-2.4-8.1c-2.2-4.8-4.8-9.5-6.9-14.4c-4.5-10.3-8.8-20.6-13.1-31c-2.2-5.4-3.8-11.1-6-16.6   c-3.2-8.3-6.7-16.6-10.1-24.9c-0.7-1.7-1.5-3.3-2.5-4.8c-0.4-0.6-1.4-1.2-2.1-1.2c-3.3,0.3-6.6,0.6-9.7,1.3   c-7.4,1.7-14.8,3.5-22.3,4.1c-0.8,0.1-1.6,0.5-2.9,0.9c2.8,3,5.4,5.7,7.6,8.1c4.5-0.7,8.5-1.2,12.5-1.9c1.1-0.2,2.2-0.5,3.2-1   c1.8-1,3.4-1.1,4.7-0.1c1.6,3.2,2.9,6.1,4.3,8.9c3.2,6.4,6.4,12.7,9.5,19.1c1.8,3.6,3.6,7.3,5.4,10.9c2.2,4.6,4.5,9.1,6.7,13.7   c2.3,4.9,4.4,9.9,7,14.7c4.8,8.7,9.8,17.3,14.7,25.9c2.6,4.5,5,9.1,7.6,13.6c0.5,0.8,1.2,1.4,1.8,2.1c2-1.3,2.4-3.1,2.6-4.9   c1-7.9,2-15.7,2.9-23.6c1.1-9.2,2-18.4,2.9-27.7c0.4-3.8,0.5-7.7,0.7-11.5c0.2-2.8,0.3-5.7,0.4-8.5c0.2-3.8,0.1-7.7,0.8-11.5   c1.1-6.4,1.1-12.8,1.4-19.3c0.2-4.4,0.6-8.8,1-13.2c0.3-2.9,1.4-3.8,4.4-3.9c5,0,10,0.3,14.9-0.2c2.9-0.3,5.2,0.3,7.6,1.6   c1.7,1,2,1.6,1.5,3.6c-0.5,1.8-1.3,3.7-1.5,5.5c-1.2,9-2.5,17.9-3.2,26.9c-1.1,13.3-1.6,26.7-2.6,40c-0.6,8.1-1.6,16.2-2.5,24.3   c-0.3,2.9-0.9,5.8-1.1,8.7c-0.3,3.6-0.3,7.2-0.4,10.8c-0.2,5.2-0.4,10.4-0.6,15.6c-0.2,4.7-0.7,9.5-0.9,14.2   c-0.1,3.4-0.1,6.8,0,10.1c0.1,2.4-0.4,3.2-2.8,2.6c-2.6-0.6-5.2-1.5-7.8-2.2c-4.2-1.1-8.3-2.2-12.5-3c-4-0.8-8-1.3-12.1-1.8   c-2.1-0.3-3-1.3-3.8-3.3c-1.9-5.1-3.7-10.2-6.8-14.8c-0.5-0.7-0.9-1.6-1.3-2.4c-4-7.8-7.8-15.6-11.9-23.2   c-4.4-8.3-9.2-16.3-13.7-24.5c-2.7-4.9-5-9.9-7.6-14.8c-0.4-0.8-1.2-1.5-2.2-2.7c-0.1,1.3-0.2,1.8-0.2,2.4c-0.5,7-0.9,14-1.4,21   c-0.1,2-0.6,4-0.7,6.1c-0.4,6.6-0.7,13.1-0.9,19.7c-0.2,5-0.3,9.9-0.4,14.9c-0.3,7.4-1.5,14.8-0.3,22.2c0.4,2.2-0.3,3-2.5,3   c-1.8,0.1-3.6-0.2-5.4-0.3c-2.1-0.2-4.3-0.5-6.4-0.6c-3.5-0.2-7-0.2-10.5-0.6c-2.6-0.3-3-1.1-2-3.7c0.6-1.6,0.7-3.2,0.1-5.1   c-2.8,1.9-5.1,3.6-7.6,5.2c-1.5,1-1.7,2-1.2,3.7c0.7,2.5,0.9,5.1,1.3,7.7c0.2,1.2,0.3,2.4,0.4,3.2c1.5,0.7,2.9,0.9,3.6,1.7   c0.9,1.1,1.9,1,3,0.9c3.4-0.2,6.8-0.6,10.2-0.5c6.6,0.1,13.1,0.4,19.7,0.5c2.1,0,4.2-0.3,5.7-1.3c0-4.1-0.1-7.9-0.1-11.6   c0.2-10.9,0.4-21.7,0.7-32.6c0.1-4.1,0.2-8.2,0.7-12.2c0.4-3.6,1.2-7.1,0.5-10.8c-0.3-1.7,1.1-3.2,2.6-3.3c1.8-0.1,2.9,0.9,3.2,2.7   c0.4,2.2,0.7,4.5,1.5,6.6c3.1,8.8,6.2,17.5,9.5,26.2c1.8,4.9,4,9.6,6,14.4c1.8,4.2,3.8,8.2,5.4,12.5c1.8,4.6,2.9,5.6,7.8,5.8   c2.1,0.1,4.3,0.2,6.4,0.5c2.6,0.4,5.1,0.9,7.7,1.4c4.8,0.9,9.5,1.9,14.3,2.9c1.8,0.4,3.4,1.4,5.1,1.7c6.3,1.2,12.2,3.3,18.2,5.5   c0.6,0.2,1.2,0.2,2,0.3c0.1-1,0.2-1.8,0.1-2.6c-0.2-4.6-0.6-9.3-0.7-13.9c-0.1-4.3,0.7-8.6,0.3-12.9c-0.9-10.4-0.2-20.8,0.2-31.2   c0.3-8.9,1.1-17.8,1.6-26.8c0.6-12.2,1.1-24.4,1.6-36.6c0.1-3.5,0.1-7,0.4-10.5c0.4-5.3,0.9-10.6,1.7-15.9   c0.9-6.2,2.4-12.2,3.4-18.4c1.1-6.8,2.1-13.7,3.1-20.5c0.2-1.5,0.5-3.1,0.8-4.8c-8-1.8-15.8-0.8-23.5-0.3   c-7.8,0.5-15.7,0.1-23.7,1.9L1242.7,410.2z"/>
	<path class="st0" d="M667.2,603.5c0.2-8.7-1.4-17.3-3.1-25.9c-3.5-17.6-7.7-35-13.1-52c-3.5-11-7.4-21.9-11.1-32.8   c-4.2-12.3-8.5-24.6-12.9-36.8c-1.2-3.3-2.7-6.4-4.1-9.7c-0.6-1.3-1.6-1.8-3-1.7c-0.9,0.1-1.8,0.1-2.7,0.2c-8.7,1-17,3.7-25.1,7   c-6.1,2.5-12.2,4.8-18.2,7.4c-2.6,1.1-5.5,2-7.9,4c1.7,3,3.2,5.7,4.7,8.5c2.3,4,4.7,8,6.7,12.2c2.6,5.3,4.5,10.9,7.2,16.1   c3.6,6.9,5.6,14.3,8.5,21.4c2,5.1,3.5,10.3,5.7,15.3c3.6,8,6.2,16.3,7,25.1c0.3,3.3,0.8,6.5,1.2,9.8c1.1,8.5,2.5,17,3.3,25.6   c0.9,8.8-0.5,17.3-5.2,25.1c-3.1,5.2-8.1,7.6-13.5,9c-5.4,1.5-15.7-1-19.8-4.9c-3.3-3.2-6.2-6.8-8.9-10.6c-2-2.8-3.2-6.2-4.9-9.6   c-1.5,0.3-2.9,0.5-4.3,0.9c-5.7,1.8-11.4,3.7-17.1,5.6c-0.9,0.3-1.7,0.7-2.5,1c-4.3,2-8.6,4.1-13,5.8c-5.5,2.2-6.5,3.7-4.9,9.4   c2.3,8.4,6.1,16.3,10,24.1c2,3.9,4.4,7.6,6.9,11.3c6.1,9.2,13.9,16.3,24.2,20.5c2.9,1.2,5.9,2.2,8.9,3.2c5.7,1.8,11.5,3.6,17.6,3   c6.3-0.6,12.6-1.5,18.8-2.7c3.3-0.6,6.7-1.5,9.6-3.1c8.3-4.4,16.4-9.1,24.4-14c2.7-1.7,5-4.2,7.2-6.6c2.7-2.9,5.1-6,7.8-9   c5.2-5.8,8.8-12.3,10.1-20c0.3-1.7,0.6-3.4,1.1-5C666.1,621.8,666.9,612.7,667.2,603.5z M656.9,613.7c-0.4,5.2-1.2,10.4-3.2,15.2   c-3.4,8.6-7.5,16.8-14.4,23.1c-2.3,2.1-4.8,4.2-7,6.4c-4.1,4.2-9.7,6.2-14.6,9.1c-4.7,2.9-10.2,4.3-15.7,5.2   c-5,0.8-10,1.5-15.9,2.4c-4.4-0.5-9.6-1.1-14.7-1.7c-6.5-0.8-11.8-4.4-17-8c-6.8-4.7-12.3-10.7-17.4-17c-3.5-4.3-5.7-9.8-8.3-14.7   c-0.4-0.8-0.4-1.8-0.6-2.6c-0.6-1.9,0.4-3.1,2-3.7c6-2.4,11.9-4.8,17.9-7.3c0.7-0.3,1.5-0.6,2.2-0.9c3-1.3,3.8-1.3,5.7,1.5   c2.9,4.4,6.4,8.1,10.4,11.6c6.9,6.1,14.9,7.7,23.7,6.6c3.3-0.4,6.7-1.3,9.9-2.3c6.5-2.1,10.9-6.9,14-12.7c1.5-2.9,1.9-6.5,2.4-9.8   c1-6.4,0.9-12.8,0.7-19.3c-0.2-6.3-0.1-12.7-1.3-18.9c-0.4-2.2-0.9-4.5-1.7-6.5c-1.7-4.3-2.7-8.8-3.8-13.3c-1.2-4.9-3-9.7-4.6-14.5   c-2.1-6-4.4-11.9-6.5-17.9c-3.2-9.1-6.2-18.2-9.3-27.3c-0.5-1.5-0.9-3-1.4-4.6c-1.5-4.9-3.5-9.6-6.3-13.9c-1.5-2.4-2.8-4.8-1.7-8   c0.5-1.4,1-2.5,2.1-3.3c2.5-1.7,5-3.5,7.8-4.8c5.1-2.4,10.4-4.6,15.7-6.4c7.8-2.6,7.7-1.4,10.7,5c1.9,4.1,2.9,8.6,4.5,12.8   c3.1,8.4,6.5,16.6,9.5,25.1c1.8,5.2,4.3,10.2,5.3,15.7c0.8,4.5,2.8,8.8,4.4,13.2c1.6,4.2,2.9,8.5,3.9,13c1.8,7.6,4.2,15,6.1,22.6   c2.2,8.7,4,17.4,6.4,26C659,597.1,657.6,605.4,656.9,613.7z"/>
	<path class="st0" d="M849,573.8c3.4-1.3,3.4-1.7,3.3-5.4c-0.2-5.7-0.6-11.3-0.5-17c0.1-9.7,0.5-19.5,0.9-29.2   c0.1-3.8,0.4-7.7,0.8-11.5c0.8-8.2,1.9-16.4,2.4-24.7c0.4-6.9,0-13.8,0-20.7c0-1.6-0.1-3.2,0-4.8c0.6-16,1.2-31.9,1.7-47.9   c0-1.1-0.2-2.2-0.3-3.3c-0.8-0.1-1.2-0.1-1.7-0.1c-10.8,1.2-21.4,3.6-32.1,5.9c-3,0.7-3.2,1.2-3.5,4.5c-0.3,5-0.8,9.9-1.1,14.9   c-0.2,3.3-0.4,6.6-0.4,9.8c0.1,10.2,0.4,20.4,0.3,30.5c-0.1,10.5-0.5,21-1,31.6c-0.3,6.2-0.8,12.4-1.4,18.6c-0.1,1.7-0.4,3.4-0.9,5   c-0.3,0.8-1.1,1.9-1.8,2.1c-0.8,0.2-1.9-0.5-2.6-1.1c-0.7-0.7-1-1.7-1.4-2.7c-2.8-6.4-5.7-12.8-8.3-19.3   c-4.1-10.3-8.1-20.6-12.1-31c-2-5.1-3.8-10.2-5.7-15.3c-2.6-6.9-5.1-13.8-7.7-20.7c-2.1-5.6-4.1-11.2-6.1-16.9   c-0.2-0.6-0.5-1.4-0.9-1.8c-0.6-0.6-1.4-1.1-2.1-1.3c-1.1-0.2-2.3-0.1-3.4,0c-4.7,0.6-9.4,1.2-14.1,2.1c-6.4,1.2-12.8,2.7-19.2,4.1   c-1.4,0.3-2.7,0.9-4.1,1.5c0.4,1.1,0.5,1.9,0.8,2.6c2.2,5.4,4.6,10.8,6.7,16.3c3.3,8.6,6.6,17.1,9.6,25.8   c3.8,11.3,10,21.6,12.9,33.2c1.4,5.5,3.4,10.8,5.1,16.2c0.5,1.6,0.5,3.5,1.3,4.9c4.6,8.1,9.4,16,14.1,24   c3.8,6.3,7.7,12.6,11.6,18.8c2.3,3.6,4.8,7.1,7.2,10.7c1.2,1.9,2.7,2.8,5.1,2.4c5-1,10-1.7,15-2.7c8.2-1.7,16.4-3.6,24.5-5.5   C843,575.8,846,574.9,849,573.8z M832.8,567.9c-9.5,1.6-18.9,3.3-28.4,5c-1.2,0.2-2.4,0.7-3.6,0.8c-2.7,0.3-5.4,0.6-8,0.6   c-0.8,0-1.7-0.9-2.4-1.6c-3-3.5-4.3-7.9-6.4-11.9c-5.3-10.1-8.1-21.1-12.2-31.7c-3.8-9.7-7.1-19.6-10.6-29.4   c-3.6-10.2-7.6-20.3-10.8-30.7c-1.6-5.4-4.6-10.3-5.6-15.9c-0.1-0.4-0.3-0.9-0.6-1.2c-2.5-2.4-2.5-5.8-3.5-8.8   c-0.9-2.8-0.5-3.5,2.3-4.6c3.5-1.3,6.7-3.2,10.7-3.1c1.4,0,2.8-0.8,4.2-1.1c2.3-0.4,3.3,0,3.9,2.2c0.7,2.4,1.6,4.5,3.3,6.5   c1.2,1.5,1.6,3.7,2.3,5.6c0.3,0.7,0.4,1.6,0.8,2.2c3.2,5,4.7,10.7,7,16c1.2,2.7,2,5.5,3.2,8.2c3.9,9,8,18,11.8,27.1   c2.9,7,5.3,14.2,8.2,21.2c1.8,4.4,4,8.6,6,12.9c1.1,2.3,2.4,4.6,3.5,6.9c0.7,1.4,1.7,2,3.3,1.7c3-0.5,6-0.9,9.2-1.4   c0.3-5,0.4-9.6,0.9-14.2c0.9-8.1,2.1-16.1,2.9-24.2c0.8-7.8,1.3-15.6,1.8-23.4c0.2-4.2,0-8.4,0-12.5c0-2.5,0.4-4.9,0.4-7.4   c0.1-5.9,0.3-11.8,0.1-17.6c-0.1-5.3,1.1-10.3,2.1-15.4c0.3-1.5,1.2-2.5,2.8-3.1c4.1-1.5,8.3-1.1,12.4-1c1.9,0,2.5,1.4,2.3,3.4   c-0.4,2.7-0.6,5.4-0.8,8.1c-0.3,4.4-0.9,8.8-0.9,13.2c-0.1,9.5-1.4,19-0.2,28.5c0.2,1.3,0.1,2.7-0.2,4.1c-0.8,3.7-0.4,7.4-0.4,11.1   c0,2-0.3,4-0.4,6.1c-0.2,4.5-0.4,9-0.6,13.5c-0.2,2.9-0.5,5.9-0.7,8.8c-0.4,5.8-0.7,11.5-1.1,17.3c-0.2,2.7-0.5,5.4-0.6,8.1   c-0.1,3.3-0.2,6.6-0.2,9.8c0,2.9-1.7,5.3-2.7,7.9C836.8,566.6,835,567.6,832.8,567.9z"/>
	<path class="st0" d="M1369.8,417c-8.9-0.8-17.8-1.6-26.7-1.9c-8.7-0.4-17.4-0.2-26.1-0.3c-2.7,0-5.4,0-8.1,0.1   c-4.2,0.1-8.4,0.2-12.6,0.4c-2.7,0.2-3.2,0.8-3.7,3.5c-1.4,7.6-2.9,15.1-4.1,22.7c-0.9,5.8-1.8,11.6-2.2,17.5   c-0.6,9.5-0.8,19-1.2,28.5c-0.4,10.2-0.9,20.3-1.3,30.5c-0.1,2.7-0.3,5.4-0.5,8.1c-0.4,7.8-0.9,15.6-1.1,23.4   c-0.2,6.7-0.1,13.4,0,20c0,4.8,0.1,9.7,0.1,14.4c42.2,4.6,81.1,17.6,117.1,39.7c1.2-17,2.3-33.5,3.5-50c-3.2-1.6-6.3-3.6-9.6-4.9   c-5-1.9-9.5-4.7-14.8-5.9c-4.1-0.9-8-2.4-12-3.5c-2.3-0.6-4.6-1-7-1.6c-10.4-2.4-20.5-6.5-31.5-6c-2,0.1-2.9-0.8-3-2.6   c-0.2-2.4-0.3-4.7-0.3-7.1c0-3.3,0.1-6.6,0-9.9c-0.2-4.3,0-8.6-2.3-12.5c1.2-2.5,3.3-3.4,6.1-3.4c2.7,0.1,5.4-0.2,8.1,0.1   c6.9,0.6,13.8,0.7,20.5,2.4c2,0.5,4.2,0.1,6.9,0c-0.6-10.2,2-20,1.6-30.3c-1.5-0.2-2.6-0.4-3.7-0.5c-5.6-0.8-11.2-1.5-16.8-2.5   c-4.8-0.8-9.7-1.1-14.5-0.5c-2.9,0.3-4-0.5-3.9-3.4c0.1-2.5,0.4-5,0.4-7.5c0.1-6.9,0.1-13.8,0-20.7c-0.1-4.4,0.1-4.8,4.7-4.8   c8.3-0.2,16.5,0.8,24.7,1.7c12.5,1.4,24.9,3.2,37.2,5.8c2.1,0.4,4.1,0.9,6.4,1.4c2.1-11.7,1.2-23.5,4.7-35   c-5.2-1.1-10.1-2.5-15.1-3.3C1383.1,418.1,1376.4,417.6,1369.8,417z M1393.9,429.6c-0.1,5.2-0.3,10.4-0.6,15.6   c-0.1,1.8-1.2,2.4-3.2,2c-3.9-0.6-7.8-1.4-11.7-1.9c-7.1-0.9-14.1-1.7-21.2-2.4c-6.3-0.6-12.6-1-18.9-1.4   c-5.3-0.3-10.6-0.3-15.8-0.5c-2.3,6.3-2.7,41.4-0.6,47.4c5,2.1,10.4,2,15.6,2.7c4.5,0.6,8.9,1.2,13.4,1.9c3.6,0.6,4.5,1.7,4,5.3   c-0.5,3.2-0.7,6.2,0,9.4c0.4,2.2-2.3,4.5-5.3,4.4c-8.8-0.1-17.6-0.4-26.4-0.6c-1.3,0-2.6,0.2-4,0.3c-0.4,7.4-0.5,14.6-1.3,21.6   c-0.6,4.9,0.7,9.4,0.8,14.1c0,2.3,0,4.7,0.1,7.5c3.1,0.4,6.7,0.7,10.2,1.5c8,1.8,16,4,24,5.9c12.4,3,23.8,8.7,35.6,13.2   c0.8,0.3,1.6,0.8,2.4,1.2c3,1.5,4.5,4.5,3.1,7.5c-1.6,3.4-1.9,6.9-2.1,10.6c-0.1,2.4-0.6,4.7-0.8,7.1c-0.1,1.4-0.5,2.5-1.9,2.9   c-1.3,0.3-2-0.4-2.9-1.2c-1.8-1.6-4-2.7-6.2-3.5c-9.5-3.6-19.1-7.1-28.6-10.6c-5-1.9-9.8-4.1-14.8-5.8c-6.4-2.2-12.9-4.3-19.4-5.9   c-4.6-1.2-9.4-1.6-14.1-2.2c-3.5-0.4-7-0.3-10.5-0.8c-2.2-0.3-4.5-0.9-6.4-1.9c-0.9-0.5-1.6-2.2-1.6-3.4   c-0.2-5.6-0.3-11.3-0.1-16.9c0.4-12.4,0.8-24.9,0.7-37.3c-0.1-6.7,0.6-13.3,1-20c0.5-7.8,1.1-15.6,1.8-23.3   c0.6-6.8,1.2-13.5,2-20.3c0.8-6.8,2-13.6,3-20.5c0.3-2.1,0.6-4.3,0.7-6.4c0.1-1.8,1.2-2.3,2.7-2.4c0.3,0,0.7-0.1,1,0   c4.5,0.2,9,0.5,13.4,0.5c5.8,0.1,11.5-0.1,17.3-0.1c11,0.1,22,0.1,32.9,0.4c7.3,0.1,14.7,0.6,22,0.8c0.8,0,1.6,0.2,2.4,0   c2.9-0.7,5.1,0.9,7.1,2.5C1393.3,427.4,1394,428.7,1393.9,429.6z"/>
	<path class="st0" d="M784.3,575.6c-4.3-6.8-8.5-13.6-12.6-20.5c-4.9-8.2-9.7-16.3-14.3-24.6c-4-7.2-7.4-14.7-11.5-21.9   c-6.3-10.9-12.8-21.6-19.4-32.3c-3.7-6-7.5-11.8-11.3-17.7c-0.5-0.9-1-1.8-1.4-2.7c-1.3-2.9-2.5-5.8-3.9-9.1   c-5.5,0.9-10.9,1.6-16.4,2.6c-3.8,0.7-7.5,1.9-11.3,2.4c-4.3,0.6-8.3,2-12.3,3.6c-2.3,1-3.3,2.5-3.4,4.9c-0.3,4.1-0.7,8.1-1.1,12.2   c-1,10-2,20-3,30c-0.2,2.4-0.3,4.7-0.5,7.1c-0.6,6.5-1.3,13.1-1.7,19.6c-0.2,3.3,0,6.6,0.3,9.8c0.1,1.5,0.9,2.9,1.3,4.4   c0.7-0.5,1-1,1.1-1.5c0.9-9.2,2.1-18.4,2.6-27.7c0.4-6.6,2.1-12.9,3.1-19.4c0.8-5.7,2.1-11.3,3.1-17c0.5-2.8,0.8-5.6,1.4-8.4   c0.2-0.9,0.7-2,1.5-2.5c2.2-1.5,4.5-2.8,7.3-3.3c3.2-0.6,6.3-1.7,9.4-2.7c1.8-0.5,3.6-1.4,5.5-1.6c2.6-0.3,5.4-0.5,8-0.3   c2.1,0.2,3,2.2,3.9,3.9c2.9,5.3,5.6,10.6,8.6,15.8c3.2,5.5,6.6,10.8,9.8,16.3c1.2,2,2.3,4.1,3.5,6.2c1.7,2.9,3.5,5.8,5.2,8.7   c3.7,6.6,7,13.4,10.9,20c4.4,7.5,9.1,14.8,13.7,22.2c5,8,10.1,16,15.2,24c2.4,3.7,5.1,7.2,7.3,11c1.6,2.8,3.4,5.3,6,7.2   c1.8,1.2,1.9,2.6,0.2,3.8c-1.2,0.9-2.8,1.4-4.3,1.5c-4.6,0.6-9.1,1.2-13.7,2.5c-3.5,1-7.2,1.2-9.6-2.7c-1.1-1.8-2.6-3.5-3.6-5.3   c-3.7-6.5-7.3-13-11.9-18.9c-2.7-3.5-5.7-7-7.2-11.3c-0.1-0.2-0.4-0.3-0.9-0.6c-4.8,1.3-10,2.6-15,4.2c-8.5,2.7-17,5.6-25.5,8.4   c-2.4,0.8-2.6,1-2.7,3.6c-0.2,9.6-0.3,19.2-0.4,28.8c0,3.6,0.5,7.3,0.3,10.9c-0.2,3.8-1,7.5-1.6,11.3c-0.5,0.3-0.9,0.7-1.5,0.8   c-6.5,2.2-13.1,4.4-19.7,6.4c-3.3,1-6.6,1.9-7,6.2c0,0.5-0.5,1-0.7,1.5c-0.4,1-0.8,2-1.3,3.3c3.2-0.1,5.6-0.9,8-1.9   c3.2-1.5,6.4-3,9.7-4.2c6.5-2.3,13-4.3,19.6-6.5c0.3-9.5,0.7-18.5,0.7-27.6c0-8.1,0-16.1,1.2-24c0.4-3,1.2-4.1,3.7-3.5   c2.8,0.6,5.1-0.4,7.5-1.4c6.3-2.8,12.8-5.1,19.5-6.6c2.8-0.6,3.9-0.1,4.5,2.5c1.1,4.5,3.8,8.2,6.2,12c3.3,5.2,7.1,10.2,10.6,15.3   c2,2.9,3.9,5.8,5.7,8.8c0.8,1.3,1.6,1.7,3,1.3c3.7-1.2,7.3-2.3,11.1-3.2c5.7-1.4,11.4-2.6,17.1-3.8c3.5-0.8,7.1-1.2,10.6-3.1   c-2.8-4.8-5.4-9.5-8.3-13.9C790.4,584.3,787.2,580,784.3,575.6z"/>
	<path class="st0" d="M1089.5,419.1c-3.7,5-12.9,21.9-13.2,24c3-3,6.2-6.1,9.3-9.4c3.9-4,8.1-7.7,12.9-10.4c2.1-1.2,4.8-2.4,7-2   c3.3,0.6,6.6,0.4,9.8,1c4,0.7,7.6,1.5,11.2,3.3c5.7,2.9,10.8,6.5,15.3,11c1.2,1.2,2.2,2.6,3.1,4c1.2,1.9,2.4,3.8,3.5,5.8   c2.4,4.4,5,8.6,7,13.2c2.5,5.7,4.2,11.7,4.5,18c0.2,4.5,0.2,9.1,0.8,13.5c1.2,9.6,0.7,19.2-1.2,28.6c-0.9,4.3-2,8.7-5.1,12   c-2.3,2.4-3.9,5.2-5.8,7.9c-0.7,1-1.3,2.1-2.2,3c-4.4,4-8.8,8.1-13.4,12c-5,4.4-11,7-17.3,9c-1.9,0.6-4,0.4-6,0.5   c-1.3,0.1-2.7,0-4.2,0c0.8,3.3,1.5,6.3,2.1,9.1c2.1,0.3,3.9,0.5,5.6,0.7c1.5,0.1,3,0.4,4.4,0c5.4-1.5,11-2.7,16.2-5   c6.6-2.9,12.6-7,17.3-12.8c1.6-2,3.6-3.8,5.3-5.7c4.8-5.3,9.4-10.8,11.4-17.9c4.2-14.6,7.8-29.3,6-44.7c-0.6-5.6-0.6-11.3-2.5-16.7   c-1.5-4.2-3.1-8.3-4.5-12.4c-4.3-12.6-11.2-23.4-20.8-32.6c-0.8-0.8-1.8-1.4-2.7-2c-1.8-1.2-3.7-2.2-5.3-3.7   c-4.5-4.1-10-6.1-15.8-7.4c-4.3-1-8.7-2.2-13.1-1.3c-4.1,0.8-8.1,2-12.1,3.1c-1,0.3-1.9,0.9-2.8,1.3L1089.5,419.1z"/>
	<path class="st0" d="M862,485.3c0.6-1.4,1.3-2.8,1.8-4.3c1.4-4.6,2.6-9.3,4.1-14c1.6-5.3,3.4-10.6,5.1-15.8   c1.6-4.8,3.2-9.7,4.7-14.5c0.7-2.2,1.8-3.3,4.4-3.4c5.5-0.2,11.1,0.3,16.5-1.2c0.7-0.2,1.6-0.2,2.4,0c0.7,0.2,1.9,0.8,1.9,1.2   c0,2.7,2.2,4.3,3.2,6.5c2.7,6.3,5.9,12.4,8.9,18.7c3,6.4,5.9,12.7,8.7,19.2c2.7,6.1,5.1,12.3,7.9,18.4c3.1,6.7,6.6,13.2,9.9,19.7   c3.7,7.5,7.4,15,11.1,22.5c0.6,1.3,1.5,2.4,2.6,4.1c1.4-2.5,2.2-4.6,3.6-6.3c1.9-2.4,1.3-4.2,0.1-6.7c-3.5-7-6.7-14.1-9.9-21.2   c-1.6-3.5-2.9-7.1-4.6-10.6c-7-14.1-14.3-28-21.3-42.1c-3.1-6.3-5.9-12.7-8.9-19.1c-2.3-5-4.8-10-7-15c-0.8-1.9-2.2-2.4-4.1-2.2   c-2.2,0.2-4.5,0.6-6.8,0.5c-5.7-0.3-11.3-0.5-16.9,0.4c-3.6,0.6-3.7,0.4-4.5,3.8c-1.4,5.5-2.6,11-4.1,16.4   c-2.4,8.5-5.3,16.8-7.6,25.3c-1.7,6.3-2.3,12.9-1.7,19.5C861.6,485.2,861.8,485.2,862,485.3z"/>
	<path class="st0" d="M1097.6,502.5c2.8,3.5,5.9,6.8,9.9,9.2c2.3,1.4,4.6,1.9,7.1,1.5c5.2-0.8,9.5-3.5,13.2-7.2   c4.8-4.8,7.3-10.8,8-17.5c0.4-3.8,0.6-7.7,1-12c-0.3-2.8-0.5-6-1.2-9.2c-1.3-6.2-4.2-11.6-7.9-16.7c-2.4-3.3-5.3-5.7-9-7.5   c-3.8-1.8-7.5-2.2-11.3-0.4c-2.2,1.1-4.6,2.1-6.3,3.8c-2.4,2.4-4.8,5.1-5.8,8.6c-1.1,3.8-2.7,7.5-3.5,11.3c-0.7,3.2-1,6.6-0.6,9.8   c0.8,6.6,2,13.2,3.4,19.7C1095.1,498.2,1096.2,500.6,1097.6,502.5z M1108.4,449.2c3.3-1.9,6.4-1.3,9.7,1c3.3,2.4,4.7,5.6,5.5,9.3   c0.2,0.8,0.4,1.5,0.6,2.3c3.4,8.8,3.3,17.8,2.4,27c-0.4,3.8-1.6,6.9-3.6,10c-3.8,5.7-11,6.4-15.8,1.4c-2.3-2.4-4.1-5.2-5.1-8.3   c-2.1-6.8-3.9-13.8-3-21c0.7-5.4,2-10.9,4.5-15.9L1108.4,449.2z"/>
	<path class="st0" d="M931.5,584c1.6-3.4,3.1-6.4,4.3-8.9c-5.5-12.2-10.7-24-16.2-36.1c-1.9,0.3-3.8,0.7-5.7,1   c-10.1,1.5-20.1,3-30.2,4.3c-2.9,0.4-4.1,1.8-4.8,4.3c-3,11.4-6,22.7-9.1,34.1c-0.2,0.6-0.4,1.5-0.9,1.7c-2.1,1.3-4,3.1-6.8,2.2   c-0.6-0.2-1.3-0.1-2,0c-6.3,0.6-12.6,1.2-18.9,1.7c-0.6,0.1-1.1,0.1-1.7,0c-2.6-0.3-3.4-2.1-2.1-4.5c0.1-0.2,0.1-0.6,0.2-1.1   c-1,0.2-1.9,0.3-2.9,0.5c0.1,5.2-4.5,8.9-4,14.6c4.2-0.5,8.2-0.8,12.2-1.6c8.2-1.6,16.5-2.5,24.9-2.8c1.8-0.1,3.6-0.4,5.4-0.6   c1.6-0.1,2.3-1,2.6-2.6c1.6-9.9,3.2-19.9,4.9-29.8c0.4-2.6,0.8-5.2,1.5-7.7c0.7-2.4,2.5-3.1,4.4-1.8c1.5,1,2.9,1.1,4.5,0.9   c2.4-0.3,4.7-0.6,7-1.1c4.5-1,9.1-1.8,13.8-1.8c2.6,0,2.9,0.3,3.1,3c0,0.6,0.2,1.1,0.4,1.6c1.1,2.5,2.2,5,3.5,7.4   c3.5,6.8,7.1,13.6,10.7,20.4C930.2,582.2,930.7,582.9,931.5,584z"/>
	<path class="st0" d="M1071.3,554c0.6,0.5,1.3,1.2,1.9,1.1c5.1-0.1,10.1-0.4,15.9-0.7c-0.9-1.2-1.2-1.6-1.5-2   c-7.7-8.1-13.2-17.5-16.5-28.1c-4-12.5-7-25.3-7.1-38.6c0-9.2,0.8-18.3,3.9-27.1c0.2-0.6,0.4-1.3,0.6-1.9c-2.2,3.6-4.3,7.3-6.2,11   c-3.2,6.2-6.7,12.1-7.7,19.4c-0.9,6.8-1.2,13.5-0.4,20.3c0.6,5.2,1.6,10.3,2.5,15.4c0.4,2,0.9,3.9,1.4,5.9   c1.2,5.6,3.8,10.6,6.4,15.6C1066.3,547.9,1068.3,551.3,1071.3,554z"/>
	<path class="st0" d="M887.7,461.9c-1.4,4.5-2.8,9.1-4.2,13.6c-0.5,1.6-0.9,3.3-1.2,4.9c-0.6,3.8-0.9,7.6-1.6,11.4   c-1.3,7-2.7,14-4,21c-0.5,2.8-1.3,5.7-0.9,9c4.7-0.2,9.2-0.2,13.6-0.5c8-0.5,15.9-2.6,23.9-1.9c0.3,0,0.6-0.3,0.8-0.4   c-1.8-7.1-20.8-53.7-24.8-60.7C888.6,459.7,888,460.7,887.7,461.9z M896.9,485.9c1.4,6.2,3.8,12.1,6.4,17.8   c0.7,1.4,1.3,2.8,0.7,4.5c-1.2,3.4-2,4-5.7,4c-0.6,0-1.1,0-1.7,0c0-0.1-0.1-0.3-0.1-0.4c-3.5,0.7-7.1,1.5-10.6,2.2   c-0.5,0.1-1.1,0.4-1.6,0.5c-2.7,0.4-4-1.1-3.4-3.8c1-5.2,2-10.4,2.9-15.7c0.8-4.7,1.6-9.4,2.4-14c0.1-0.7,0.4-1.3,0.6-1.9   c1.1-3.3,2.3-3.3,5.1-1.6C895.3,479.6,896.2,482.6,896.9,485.9z"/>
	<path class="st0" d="M699.6,543c-1.1,1.8-3.3,1.8-4.6,0.4c-0.4-0.4-0.6-1-1.3-2.1c-0.2,3-0.3,5.3-0.5,7.6c0.6,0.1,0.9,0.2,1.1,0.2   c6.2-1.9,12.3-3.8,18.5-5.6c5.4-1.6,10.6-3.8,16.4-4.3c1.3-0.1,2.6-0.9,4.3-1.5c-2.9-4-5.4-7.6-8.1-11.1c-2.6-3.4-5.6-6.5-8.2-9.9   c-3.7-4.8-7.3-9.8-11-14.7c-2.1-2.8-4.4-5.5-6.6-8.2c-0.4-0.4-1-0.7-2-1.3c0.2,4.4-0.4,8.2-1.9,11.7c-0.3,0.7-0.2,1.6-0.3,2.4   c-0.2,4.2-0.3,8.3-0.6,12.5c-0.2,3.7-0.6,7.4-0.9,11.2c-0.2,2.5-0.3,5.1-0.5,7.6c0.3,0,0.6,0,0.9,0c0.2-0.4,0.4-0.8,0.4-1.2   c0.9-10,1.9-20,2.8-30c0.3-2.9,0.7-3.5,3.4-4.3c2.9-0.8,3.9-0.4,5.5,1.9c2.8,4.1,5.4,8.3,8.4,12.3c1.7,2.4,4,4.3,5.8,6.6   c2.1,2.5,4.1,5.1,5.9,7.8c1.6,2.6,0.1,4.3-2.5,4.2c-2.3,0-4.7,0.4-7,1c-4.5,1.2-8.9,2.6-13.3,3.9C702,540.8,700.6,541.4,699.6,543z   "/>
	<path class="st0" d="M716.2,531.3c-1.5,0.6-3.2,1.2-5.1,1.7C712.9,532.5,714.7,531.9,716.2,531.3z"/>
	<path class="st0" d="M719.3,529.8L719.3,529.8c-0.6,0.4-1.6,0.9-2.9,1.4C717.7,530.7,718.7,530.2,719.3,529.8z"/>
	<path class="st0" d="M709.8,533.4c-0.9,0.3-1.7,0.5-2.6,0.7C708.1,533.9,709,533.6,709.8,533.4z"/>
	<path d="M1093.2,580.1c-0.5-3-0.8-6-1.2-9c-0.3-2.4-1.7-3.6-4.1-3.8c-3.2-0.3-6.3-0.7-9.5-0.9c-4.7-0.2-9.5-0.2-14.2-0.2   c-2.4,0-4.7-0.1-7.1,0c-2.7,0.1-5.4,0.4-8.1,0.6c-6.3,0.5-12.6,0.8-18.9,1.4c-8.4,0.7-16.9,1.6-25.3,2.3c-1.9,0.2-3.8-0.1-5.9-0.2   c0.1-1.3,0-2.3,0.3-3c3.6-10.6,7.3-21.2,11-31.7c1.5-4.1,3.2-8.2,4.9-12.3c2.7-6.4,5.3-13,8.5-19.2c3.9-7.7,8.3-15,12.5-22.5   c4.8-8.6,9.7-17.2,14.4-25.8c1.5-2.7,2.8-5.4,4.1-8.2c2-4,3.7-8.2,5.9-12.1c1.5-2.6,3.5-5,5.3-7.5c1.1-1.6,2.3-3.1,3.2-4.8   c2.2-3.7,4.1-7.5,6.3-11.2c1.6-2.7,2.9-5.1,1.8-8.5c-0.8-2.6-1.4-3.6-4.3-3.8c-2.6-0.2-5.2-0.5-7.8-0.7c-2.3-0.2-4.5-0.4-6.8-0.5   c-5.4-0.2-10.9-0.1-16.3-0.3c-10.5-0.5-21-0.6-31.5,0.1c-2.5,0.2-5,0.2-7.4,0.4c-5.3,0.4-10.7,0.5-15.9,1.3   c-12.5,2.1-24.9,4.4-37.3,6.8c-3.4,0.7-6.6,2-9.5,2.9c-1.4,3.1-1.1,5.6-0.3,8.1c0.2,0.8,0.4,1.6,0.6,2.3   c3.4,8.4,6.8,16.8,10.4,25.1c1.2,2.8,2.6,3.3,5.8,2.8c4.5-0.8,8.9-1.6,13.3-2.6c7.1-1.6,14.2-3,21.1-5.2   c13.7-4.5,27.7-5.7,41.9-5.5c1.9,0,3.7,0.6,6.4,1c-2.3,3.3-4.1,5.7-5.8,8.3c-3.8,5.9-7.6,11.7-11.4,17.6c-2.1,3.3-4.1,6.8-6.4,10   c-3.6,5.1-7.6,9.9-11.1,15c-3.5,5.1-6.4,10.6-9.8,15.8c-3.9,6.1-8.3,11.8-11.1,18.6c-0.7,1.7-1.7,3.2-2.7,4.7   c-3.4,4.9-6.9,9.8-10.3,14.8c-0.9,1.3-1.7,2.7-2.4,4.1c-1.5,2.9-2.9,5.9-4.4,8.8c-4.9,9.3-10.9,17.9-15,27.6c-0.8,2-1.7,4-3.1,5.6   c-2.6,3.1-3.2,6.7-3.7,10.4c-0.5,3.9,0.8,5.3,4.6,5.5c1,0,2.1-0.6,3.2-0.9c1.8-0.6,3.6-1.3,5.5-1.7c2.1-0.4,4.2-0.5,6.4-0.9   c4.8-0.8,9.5-1.9,14.4-2.7c8.3-1.3,16.6-2.3,24.8-3.5c3.7-0.5,7.4-1.2,11.1-1.6c5.7-0.5,11.5-0.9,17.3-1.3   c4.1-0.3,8.1-0.6,12.2-0.8c4.9-0.2,9.7-0.4,14.6-0.4c5,0,10,0.1,14.9,0.4c6.8,0.4,13.5,1,20.3,1.5c0.1,0,0.3,0.1,0.3,0   c1.2-0.7,2.5-1.1,3.4-2.1c1-1-0.2-2-0.6-3C1093.9,583.9,1093.6,582,1093.2,580.1z"/>
	<path d="M650.3,562.8c-1.9-7.6-4.4-15-6.1-22.6c-1-4.4-2.3-8.7-3.9-13c-1.6-4.3-3.6-8.7-4.4-13.2c-1-5.6-3.5-10.5-5.3-15.7   c-3-8.4-6.4-16.7-9.5-25.1c-1.6-4.2-2.7-8.7-4.5-12.8c-2.9-6.4-2.9-7.6-10.7-5c-5.4,1.8-10.6,4-15.7,6.4c-2.8,1.3-5.2,3.1-7.8,4.8   c-1.1,0.8-1.7,1.9-2.1,3.3c-1,3.1,0.2,5.6,1.7,8c2.8,4.3,4.8,9,6.3,13.9c0.4,1.5,0.9,3.1,1.4,4.6c3.1,9.1,6.2,18.2,9.3,27.3   c2.1,6,4.4,11.9,6.5,17.9c1.7,4.8,3.5,9.6,4.6,14.5c1.1,4.5,2,9,3.8,13.3c0.8,2.1,1.3,4.3,1.7,6.5c1.2,6.3,1,12.6,1.3,18.9   c0.3,6.5,0.3,12.9-0.7,19.3c-0.5,3.3-0.9,6.9-2.4,9.8c-3.1,5.8-7.4,10.6-14,12.7c-3.2,1-6.5,1.9-9.9,2.3   c-8.8,1.2-16.8-0.4-23.7-6.6c-3.9-3.5-7.4-7.3-10.4-11.6c-1.9-2.8-2.7-2.8-5.7-1.5c-0.7,0.3-1.5,0.6-2.2,0.9   c-6,2.4-12,4.8-17.9,7.3c-1.6,0.7-2.6,1.8-2,3.7c0.3,0.9,0.2,1.9,0.6,2.6c2.7,5,4.9,10.4,8.3,14.7c5.1,6.3,10.6,12.3,17.4,17   c5.2,3.6,10.5,7.2,17,8c5.1,0.6,10.3,1.2,14.7,1.7c5.8-0.9,10.9-1.6,15.9-2.4c5.5-0.9,11-2.3,15.7-5.2c4.9-3,10.5-4.9,14.6-9.1   c2.2-2.3,4.6-4.3,7-6.4c6.9-6.4,11-14.6,14.4-23.1c1.9-4.9,2.8-10,3.2-15.2c0.6-8.3,2.1-16.6-0.2-24.9   C654.3,580.2,652.6,571.4,650.3,562.8z"/>
	<path d="M840.5,546.8c0.1-2.7,0.4-5.4,0.6-8.1c0.4-5.8,0.7-11.5,1.1-17.3c0.2-2.9,0.6-5.9,0.7-8.8c0.3-4.5,0.4-9,0.6-13.5   c0.1-2,0.4-4,0.4-6.1c0-3.7-0.4-7.4,0.4-11.1c0.3-1.3,0.3-2.7,0.2-4.1c-1.2-9.5,0.2-19,0.2-28.5c0-4.4,0.6-8.8,0.9-13.2   c0.2-2.7,0.4-5.4,0.8-8.1c0.3-1.9-0.4-3.4-2.3-3.4c-4.2,0-8.4-0.4-12.4,1c-1.6,0.6-2.5,1.6-2.8,3.1c-1,5.1-2.2,10.2-2.1,15.4   c0.1,5.9,0,11.8-0.1,17.6c0,2.5-0.4,4.9-0.4,7.4c-0.1,4.2,0.2,8.4,0,12.5c-0.4,7.8-1,15.6-1.8,23.4c-0.8,8.1-2.1,16.1-2.9,24.2   c-0.5,4.6-0.6,9.2-0.9,14.2c-3.2,0.5-6.2,0.8-9.2,1.4c-1.6,0.3-2.6-0.3-3.3-1.7c-1.2-2.3-2.4-4.6-3.5-6.9c-2.1-4.3-4.2-8.5-6-12.9   c-2.9-7-5.3-14.2-8.2-21.2c-3.8-9.1-7.9-18-11.8-27.1c-1.2-2.7-2-5.5-3.2-8.2c-2.3-5.3-3.8-11.1-7-16c-0.4-0.7-0.5-1.5-0.8-2.2   c-0.7-1.9-1-4.2-2.3-5.6c-1.7-2-2.6-4.1-3.3-6.5c-0.7-2.1-1.6-2.6-3.9-2.2c-1.4,0.3-2.8,1.2-4.2,1.1c-3.9-0.1-7.2,1.8-10.7,3.1   c-2.8,1.1-3.2,1.9-2.3,4.6c0.9,3,0.9,6.4,3.5,8.8c0.3,0.3,0.5,0.8,0.6,1.2c1,5.6,4,10.5,5.6,15.9c3.1,10.4,7.1,20.5,10.8,30.7   c3.5,9.8,6.8,19.7,10.6,29.4c4.1,10.5,6.8,21.6,12.2,31.7c2.1,4,3.3,8.4,6.4,11.9c0.6,0.7,1.6,1.6,2.4,1.6c2.7,0,5.4-0.3,8-0.6   c1.2-0.1,2.4-0.6,3.6-0.8c9.5-1.7,18.9-3.4,28.4-5c2.2-0.4,4-1.3,4.8-3.3c1.1-2.6,2.7-5,2.7-7.9   C840.4,553.4,840.4,550.1,840.5,546.8z"/>
	<path d="M1385.4,424.3c-0.8,0.2-1.6,0-2.4,0c-7.3-0.3-14.7-0.7-22-0.8c-11-0.2-22-0.3-32.9-0.4c-5.8,0-11.5,0.2-17.3,0.1   c-4.5,0-9-0.3-13.4-0.5c-0.3,0-0.7,0-1,0c-1.5,0.1-2.6,0.7-2.7,2.4c-0.2,2.1-0.4,4.3-0.7,6.4c-1,6.8-2.1,13.6-3,20.5   c-0.8,6.7-1.4,13.5-2,20.3c-0.7,7.8-1.3,15.5-1.8,23.3c-0.4,6.7-1.1,13.3-1,20c0.1,12.4-0.3,24.9-0.7,37.3   c-0.2,5.7,0,11.3,0.1,16.9c0,1.2,0.7,2.9,1.6,3.4c1.9,1,4.2,1.6,6.4,1.9c3.5,0.5,7,0.4,10.5,0.8c4.7,0.6,9.5,1,14.1,2.2   c6.6,1.6,13,3.7,19.4,5.9c5,1.7,9.9,3.9,14.8,5.8c9.5,3.6,19.1,7.1,28.6,10.6c2.3,0.8,4.4,1.9,6.2,3.5c0.9,0.8,1.6,1.6,2.9,1.2   c1.4-0.4,1.8-1.5,1.9-2.9c0.2-2.4,0.6-4.7,0.8-7.1c0.2-3.6,0.5-7.1,2.1-10.6c1.4-3-0.1-6-3.1-7.5c-0.8-0.4-1.6-0.9-2.4-1.2   c-11.8-4.5-23.2-10.3-35.6-13.2c-8-1.9-16-4.1-24-5.9c-3.5-0.8-7.1-1.1-10.2-1.5c0-2.9,0-5.2-0.1-7.5c-0.1-4.7-1.4-9.3-0.8-14.1   c0.8-7,0.9-14.2,1.3-21.6c1.3-0.1,2.7-0.4,4-0.3c8.8,0.2,17.6,0.4,26.4,0.6c3,0.1,5.7-2.2,5.3-4.4c-0.6-3.2-0.5-6.2,0-9.4   c0.6-3.6-0.4-4.7-4-5.3c-4.5-0.7-8.9-1.2-13.4-1.9c-5.2-0.7-10.6-0.7-15.6-2.7c-2.1-6-1.7-41.2,0.6-47.4c5.2,0.1,10.5,0.2,15.8,0.5   c6.3,0.3,12.6,0.8,18.9,1.4c7.1,0.7,14.2,1.5,21.2,2.4c3.9,0.5,7.8,1.3,11.7,1.9c2,0.3,3.1-0.3,3.2-2c0.3-5.2,0.5-10.4,0.6-15.6   c0-1-0.6-2.3-1.4-2.9C1390.5,425.2,1388.3,423.6,1385.4,424.3z"/>
	<path d="M1103.7,455.1c-2.5,5-3.8,10.4-4.5,15.9c-0.9,7.2,0.9,14.2,3,21c1,3.2,2.8,5.9,5.1,8.3c4.8,5,12,4.4,15.8-1.4   c2.1-3.1,3.3-6.3,3.6-10c0.9-9.2,1-18.3-2.4-27c-0.3-0.7-0.5-1.5-0.6-2.3c-0.9-3.7-2.2-7-5.5-9.3c-3.2-2.3-6.3-2.9-9.7-1   L1103.7,455.1z M1108,459.2c1-2.4,1.8-4.9,4.4-6.4c2.8,1.1,4.3,3,5.2,5.6c2.3,6.6,4.3,13.3,4.2,20.5c0,3.2,0.2,6.3,0.2,9.5   c0,2.8-0.9,5.3-2.4,7.7c-1.9,3.1-6.2,3.5-8.6,0.6c-3.4-4-5.1-8.7-5.8-13.8c-0.1-0.9-0.1-1.8-0.3-2.7   C1102.9,472.7,1105.2,465.9,1108,459.2z"/>
	<path d="M886.9,479.1c-0.2,0.6-0.5,1.3-0.6,1.9c-0.8,4.7-1.6,9.4-2.4,14c-0.9,5.2-1.9,10.4-2.9,15.7c-0.5,2.8,0.7,4.2,3.4,3.8   c0.6-0.1,1.1-0.3,1.6-0.5c3.5-0.7,7-1.5,10.6-2.2c0,0.1,0.1,0.3,0.1,0.4c0.6,0,1.1,0,1.7,0c3.8,0,4.5-0.6,5.7-4   c0.6-1.7-0.1-3.1-0.7-4.5c-2.7-5.8-5.1-11.6-6.4-17.8c-0.7-3.3-1.6-6.4-4.9-8.4C889.2,475.8,888,475.8,886.9,479.1z M890.9,487.6   c2,6.3,4.1,12.6,6.2,19.3c-3.2,0.5-6.3,0.9-9.9,1.5c1-7.2,2-14.1,2.9-20.9C890.4,487.6,890.6,487.6,890.9,487.6z"/>
</g>
</svg>
